<svg height="1250" stroke-miterlimit="10" style="clip-rule:evenodd;fill-rule:nonzero;stroke-linecap:round;stroke-linejoin:round" version="1.1" viewBox="0 0 1250 1250" width="1250" xml:space="preserve" id="svg154" xmlns="http://www.w3.org/2000/svg">
<defs id="defs75"><radialGradient cx="0" cy="0" gradientTransform="matrix(84.5287,-90.4349,-90.4349,-84.5287,508.709,171.349)" gradientUnits="userSpaceOnUse" id="RadialGradient" r="1">
<stop offset="0" stop-color="#f27d71" id="stop1"></stop>
<stop offset="1" stop-color="#8a39bf" id="stop2"></stop>
</radialGradient><linearGradient gradientTransform="matrix(-131.488,-29.324,-29.324,131.488,174.901,336.143)" gradientUnits="userSpaceOnUse" id="LinearGradient" x1="0" x2="1" y1="0" y2="0">
<stop offset="0" stop-color="#ff8417" id="stop3"></stop>
<stop offset="1" stop-color="#8a39bf" id="stop4"></stop>
</linearGradient><radialGradient cx="0" cy="0" gradientTransform="matrix(402.077,163.455,-163.455,402.077,145.306,347.459)" gradientUnits="userSpaceOnUse" id="RadialGradient_2" r="1">
<stop offset="0" stop-color="#ff8417" id="stop5"></stop>
<stop offset="0.466391" stop-color="#b760f0" id="stop6"></stop>
<stop offset="1" stop-color="#f27d71" id="stop7"></stop>
</radialGradient><linearGradient gradientTransform="matrix(-1.96007,159.601,-159.601,-1.96007,682.574,825.848)" gradientUnits="userSpaceOnUse" id="LinearGradient_2" x1="0" x2="1" y1="0" y2="0">
<stop offset="0" stop-color="#9b51cb" id="stop8"></stop>
<stop offset="1" stop-color="#8a39bf" id="stop9"></stop>
</linearGradient><linearGradient gradientTransform="matrix(2.91941,121.523,-121.523,2.91941,917.511,751.364)" gradientUnits="userSpaceOnUse" id="LinearGradient_3" x1="0" x2="1" y1="0" y2="0">
<stop offset="0" stop-color="#b760f0" id="stop10"></stop>
<stop offset="1" stop-color="#8a39bf" id="stop11"></stop>
</linearGradient><linearGradient gradientTransform="matrix(0.405636,113.573,-113.573,0.405636,448.219,757.159)" gradientUnits="userSpaceOnUse" id="LinearGradient_4" x1="0" x2="1" y1="0" y2="0">
<stop offset="0" stop-color="#b760f0" id="stop12"></stop>
<stop offset="1" stop-color="#8a39bf" id="stop13"></stop>
</linearGradient><radialGradient cx="0" cy="0" gradientTransform="matrix(787.392,227.673,-227.673,787.392,321.776,568.489)" gradientUnits="userSpaceOnUse" id="RadialGradient_3" r="1">
<stop offset="0" stop-color="#ff8417" id="stop14"></stop>
<stop offset="0.466391" stop-color="#b760f0" id="stop15"></stop>
<stop offset="1" stop-color="#f27d71" id="stop16"></stop>
</radialGradient><filter color-interpolation-filters="sRGB" filterUnits="userSpaceOnUse" height="444.57101" id="Filter" width="844.04797" x="261.327" y="510.52399">
<fedropshadow dx="-0" dy="-0" flood-color="#000000" flood-opacity="0.199678" in="SourceGraphic" result="Shadow" stdDeviation="38.3575"></fedropshadow>
<feGaussianBlur stdDeviation="0.00021757763" id="feGaussianBlur163"></feGaussianBlur></filter><radialGradient cx="0" cy="0" gradientTransform="matrix(-146.09,-182.898,182.898,-146.09,480.05,331.831)" gradientUnits="userSpaceOnUse" id="RadialGradient_4" r="1">
<stop offset="0" stop-color="#ff8417" id="stop17"></stop>
<stop offset="1" stop-color="#8a39bf" id="stop18"></stop>
</radialGradient><radialGradient cx="0" cy="0" gradientTransform="matrix(146.09,-182.898,-182.898,-146.09,888.353,331.831)" gradientUnits="userSpaceOnUse" id="RadialGradient_5" r="1">
<stop offset="0" stop-color="#f27d71" id="stop19"></stop>
<stop offset="1" stop-color="#8a39bf" id="stop20"></stop>
</radialGradient><linearGradient gradientTransform="matrix(139.39,-43.2219,43.2219,139.39,988.903,593.392)" gradientUnits="userSpaceOnUse" id="LinearGradient_5" x1="0" x2="1" y1="0" y2="0">
<stop offset="0" stop-color="#f27d71" id="stop21"></stop>
<stop offset="1" stop-color="#8a39bf" id="stop22"></stop>
</linearGradient><linearGradient gradientTransform="matrix(-145.009,-45.0993,-45.0993,145.009,382.441,595.269)" gradientUnits="userSpaceOnUse" id="LinearGradient_6" x1="0" x2="1" y1="0" y2="0">
<stop offset="0" stop-color="#ff8417" id="stop23"></stop>
<stop offset="1" stop-color="#8a39bf" id="stop24"></stop>
</linearGradient><linearGradient gradientTransform="matrix(164.226,-30.1172,30.1172,164.226,986.003,443.671)" gradientUnits="userSpaceOnUse" id="LinearGradient_7" x1="0" x2="1" y1="0" y2="0">
<stop offset="0" stop-color="#f27d71" id="stop25"></stop>
<stop offset="1" stop-color="#8a39bf" id="stop26"></stop>
</linearGradient><linearGradient gradientTransform="matrix(204.65,-67.7043,67.7043,204.65,957.825,347.466)" gradientUnits="userSpaceOnUse" id="LinearGradient_8" x1="0" x2="1" y1="0" y2="0">
<stop offset="0" stop-color="#f27d71" id="stop27"></stop>
<stop offset="1" stop-color="#8a39bf" id="stop28"></stop>
</linearGradient><linearGradient gradientTransform="matrix(-199.806,-23.9937,-23.9937,199.806,417.07,428.658)" gradientUnits="userSpaceOnUse" id="LinearGradient_9" x1="0" x2="1" y1="0" y2="0">
<stop offset="0" stop-color="#ff8417" id="stop29"></stop>
<stop offset="1" stop-color="#8a39bf" id="stop30"></stop>
</linearGradient><linearGradient gradientTransform="matrix(-276.549,-85.0655,-85.0655,276.549,464.301,354.64)" gradientUnits="userSpaceOnUse" id="LinearGradient_10" x1="0" x2="1" y1="0" y2="0">
<stop offset="0" stop-color="#ff8417" id="stop31"></stop>
<stop offset="1" stop-color="#8a39bf" id="stop32"></stop>
</linearGradient><radialGradient cx="0" cy="0" gradientTransform="matrix(-9.18522,-475.841,475.841,-9.18522,691.29989,288.17185)" gradientUnits="userSpaceOnUse" id="RadialGradient_6" r="1">
<stop offset="0" stop-color="#ff8417" id="stop33"></stop>
<stop offset="0.514541" stop-color="#8a39bf" id="stop34"></stop>
<stop offset="1" stop-color="#f27d71" id="stop35"></stop>
</radialGradient><filter color-interpolation-filters="sRGB" filterUnits="userSpaceOnUse" height="592.97302" id="Filter_2" width="608.98102" x="378.396" y="-106.323">
<fedropshadow dx="-0" dy="-0" flood-color="#000000" flood-opacity="0.329667" in="SourceGraphic" result="Shadow" stdDeviation="52.9048"></fedropshadow>
<feGaussianBlur stdDeviation="0.00015954265" id="feGaussianBlur162"></feGaussianBlur></filter><linearGradient gradientTransform="matrix(529.068,0,0,529.068,418.32269,495.33159)" gradientUnits="userSpaceOnUse" id="LinearGradient_11" x1="0" x2="1" y1="0" y2="0">
<stop offset="0" stop-color="#ff8417" id="stop36"></stop>
<stop offset="1" stop-color="#f27d71" id="stop37"></stop>
</linearGradient><filter color-interpolation-filters="sRGB" filterUnits="userSpaceOnUse" height="803.70099" id="Filter_3" width="738.22302" x="313.77499" y="93.770599">
<fedropshadow dx="-0" dy="-0" flood-color="#000000" flood-opacity="0.199678" in="SourceGraphic" result="Shadow" stdDeviation="38.3575"></fedropshadow>
<feGaussianBlur stdDeviation="0.00052139305" id="feGaussianBlur161"></feGaussianBlur></filter><linearGradient gradientTransform="matrix(1.13064,203.812,-203.812,1.13064,1030.37,400.95)" gradientUnits="userSpaceOnUse" id="LinearGradient_12" x1="0" x2="1" y1="0" y2="0">
<stop offset="0" stop-color="#ff8417" id="stop38"></stop>
<stop offset="1" stop-color="#8a39bf" id="stop39"></stop>
</linearGradient><radialGradient cx="0" cy="0" gradientTransform="matrix(498.714,144.202,-144.202,498.714,804.22,338.137)" gradientUnits="userSpaceOnUse" id="RadialGradient_7" r="1">
<stop offset="0" stop-color="#ff8417" id="stop40"></stop>
<stop offset="0.466391" stop-color="#b760f0" id="stop41"></stop>
<stop offset="1" stop-color="#f27d71" id="stop42"></stop>
</radialGradient><filter color-interpolation-filters="sRGB" filterUnits="userSpaceOnUse" height="281.57901" id="Filter_4" width="534.59802" x="765.93298" y="301.42401">
<fedropshadow dx="-0" dy="-0" flood-color="#000000" flood-opacity="0.199678" in="SourceGraphic" result="Shadow" stdDeviation="24.2947"></fedropshadow>
</filter><radialGradient cx="0" cy="0" gradientTransform="matrix(402.12,0,0,402.12,831.752,290.823)" gradientUnits="userSpaceOnUse" id="RadialGradient_8" r="1">
<stop offset="0" stop-color="#ff8417" id="stop43"></stop>
<stop offset="0.466391" stop-color="#b760f0" id="stop44"></stop>
<stop offset="1" stop-color="#f27d71" id="stop45"></stop>
</radialGradient><filter color-interpolation-filters="sRGB" filterUnits="userSpaceOnUse" height="584.35999" id="Filter_5" width="534.59302" x="765.51599" y="-1.35677">
<fedropshadow dx="-0" dy="-0" flood-color="#000000" flood-opacity="0.199678" in="SourceGraphic" result="Shadow" stdDeviation="24.2947"></fedropshadow>
</filter><linearGradient gradientTransform="matrix(335.098,0,0,335.098,865.388,291.984)" gradientUnits="userSpaceOnUse" id="LinearGradient_13" x1="0" x2="1" y1="0" y2="0">
<stop offset="0" stop-color="#ff8417" id="stop46"></stop>
<stop offset="1" stop-color="#f27d71" id="stop47"></stop>
</linearGradient><filter color-interpolation-filters="sRGB" filterUnits="userSpaceOnUse" height="509.043" id="Filter_6" width="467.57101" x="799.15198" y="37.462898">
<fedropshadow dx="-0" dy="-0" flood-color="#000000" flood-opacity="0.199678" in="SourceGraphic" result="Shadow" stdDeviation="24.2947"></fedropshadow>
</filter><linearGradient gradientTransform="matrix(31.5417,226.645,-226.645,31.5417,889.203,397.071)" gradientUnits="userSpaceOnUse" id="LinearGradient_14" x1="0" x2="1" y1="0" y2="0">
<stop offset="0" stop-color="#ff8417" id="stop48"></stop>
<stop offset="1" stop-color="#8a39bf" id="stop49"></stop>
</linearGradient><linearGradient gradientTransform="matrix(19.2819,138.962,-138.962,19.2819,1130.63,480.552)" gradientUnits="userSpaceOnUse" id="LinearGradient_15" x1="0" x2="1" y1="0" y2="0">
<stop offset="0" stop-color="#ff8417" id="stop50"></stop>
<stop offset="1" stop-color="#8a39bf" id="stop51"></stop>
</linearGradient><linearGradient gradientTransform="matrix(10.1468,69.4398,-69.4398,10.1468,1055.46,516.867)" gradientUnits="userSpaceOnUse" id="LinearGradient_16" x1="0" x2="1" y1="0" y2="0">
<stop offset="0" stop-color="#ff8417" id="stop52"></stop>
<stop offset="1" stop-color="#8a39bf" id="stop53"></stop>
</linearGradient><linearGradient gradientTransform="matrix(0.0539473,35.7639,-35.7639,0.0539473,940.009,516.69)" gradientUnits="userSpaceOnUse" id="LinearGradient_17" x1="0" x2="1" y1="0" y2="0">
<stop offset="0" stop-color="#ff8417" id="stop54"></stop>
<stop offset="1" stop-color="#8a39bf" id="stop55"></stop>
</linearGradient><linearGradient gradientTransform="matrix(-1.33464,23.8495,-23.8495,-1.33464,952.255,547.209)" gradientUnits="userSpaceOnUse" id="LinearGradient_18" x1="0" x2="1" y1="0" y2="0">
<stop offset="0" stop-color="#ff8417" id="stop56"></stop>
<stop offset="1" stop-color="#8a39bf" id="stop57"></stop>
</linearGradient><linearGradient gradientTransform="matrix(-3.55546,20.5412,-20.5412,-3.55546,884.165,531.659)" gradientUnits="userSpaceOnUse" id="LinearGradient_19" x1="0" x2="1" y1="0" y2="0">
<stop offset="0" stop-color="#ff8417" id="stop58"></stop>
<stop offset="1" stop-color="#8a39bf" id="stop59"></stop>
</linearGradient><linearGradient gradientTransform="matrix(-5.08182,54.934,-54.934,-5.08182,979.633,540.721)" gradientUnits="userSpaceOnUse" id="LinearGradient_20" x1="0" x2="1" y1="0" y2="0">
<stop offset="0" stop-color="#ff8417" id="stop60"></stop>
<stop offset="1" stop-color="#8a39bf" id="stop61"></stop>
</linearGradient><linearGradient gradientTransform="matrix(-4.19787,50.4246,-50.4246,-4.19787,1042.93,554.805)" gradientUnits="userSpaceOnUse" id="LinearGradient_21" x1="0" x2="1" y1="0" y2="0">
<stop offset="0" stop-color="#ff8417" id="stop62"></stop>
<stop offset="1" stop-color="#8a39bf" id="stop63"></stop>
</linearGradient><linearGradient gradientTransform="matrix(-1.97632,26.0796,-26.0796,-1.97632,1115.32,546.771)" gradientUnits="userSpaceOnUse" id="LinearGradient_22" x1="0" x2="1" y1="0" y2="0">
<stop offset="0" stop-color="#ff8417" id="stop64"></stop>
<stop offset="1" stop-color="#8a39bf" id="stop65"></stop>
</linearGradient><linearGradient gradientTransform="matrix(0.00363437,50.4623,-50.4623,0.00363437,1083.18,526.668)" gradientUnits="userSpaceOnUse" id="LinearGradient_23" x1="0" x2="1" y1="0" y2="0">
<stop offset="0" stop-color="#ff8417" id="stop66"></stop>
<stop offset="1" stop-color="#8a39bf" id="stop67"></stop>
</linearGradient><linearGradient gradientTransform="matrix(5.13767,11.6276,-11.6276,5.13767,1167.65,504.869)" gradientUnits="userSpaceOnUse" id="LinearGradient_24" x1="0" x2="1" y1="0" y2="0">
<stop offset="0" stop-color="#ff8417" id="stop68"></stop>
<stop offset="1" stop-color="#8a39bf" id="stop69"></stop>
</linearGradient><linearGradient gradientTransform="matrix(-3.62761,42.1541,-42.1541,-3.62761,963.624,496.782)" gradientUnits="userSpaceOnUse" id="LinearGradient_25" x1="0" x2="1" y1="0" y2="0">
<stop offset="0" stop-color="#ff8417" id="stop70"></stop>
<stop offset="1" stop-color="#8a39bf" id="stop71"></stop>
</linearGradient><linearGradient gradientTransform="matrix(-3.62761,42.1541,-42.1541,-3.62761,1097.84,526.836)" gradientUnits="userSpaceOnUse" id="LinearGradient_26" x1="0" x2="1" y1="0" y2="0">
<stop offset="0" stop-color="#ff8417" id="stop72"></stop>
<stop offset="1" stop-color="#8a39bf" id="stop73"></stop>
</linearGradient><linearGradient gradientTransform="matrix(14.7229,98.3695,-98.3695,14.7229,1201.34,439.852)" gradientUnits="userSpaceOnUse" id="LinearGradient_27" x1="0" x2="1" y1="0" y2="0">
<stop offset="0" stop-color="#ff8417" id="stop74"></stop>
<stop offset="1" stop-color="#8a39bf" id="stop75"></stop>
</linearGradient><filter style="color-interpolation-filters:sRGB" id="filter163" x="-0.10737742" y="-0.045207918" width="1.2147548" height="1.0904156"><feGaussianBlur stdDeviation="0.00020907025" id="feGaussianBlur164"></feGaussianBlur></filter><filter style="color-interpolation-filters:sRGB" id="filter164" x="-0.022302969" y="-0.0351699" width="1.0446059" height="1.0703392"><feGaussianBlur stdDeviation="0.00020907025" id="feGaussianBlur165"></feGaussianBlur></filter><filter style="color-interpolation-filters:sRGB" id="filter165" x="-0.10720381" y="-0.045207888" width="1.2144075" height="1.090415"><feGaussianBlur stdDeviation="0.00020907025" id="feGaussianBlur166"></feGaussianBlur></filter><filter style="color-interpolation-filters:sRGB" id="filter166" x="-0.038557417" y="-0.026637862" width="1.0762615" height="1.0535001"><feGaussianBlur stdDeviation="0.00041028478" id="feGaussianBlur167"></feGaussianBlur></filter><filter style="color-interpolation-filters:sRGB" id="filter167" x="-0.039159738" y="-0.036483714" width="1.0794927" height="1.0729675"><feGaussianBlur stdDeviation="0.00041028478" id="feGaussianBlur168"></feGaussianBlur></filter><filter style="color-interpolation-filters:sRGB" id="filter168" x="-0.019432585" y="-0.036860402" width="1.0394573" height="1.0737221"><feGaussianBlur stdDeviation="0.00041028478" id="feGaussianBlur169"></feGaussianBlur></filter><filter style="color-interpolation-filters:sRGB" id="filter169" x="-0.017703809" y="-0.019269417" width="1.035174" height="1.0382371"><feGaussianBlur stdDeviation="0.00041028478" id="feGaussianBlur170"></feGaussianBlur></filter><filter style="color-interpolation-filters:sRGB" id="filter170" x="-0.017470212" y="-0.018994331" width="1.035174" height="1.0379623"><feGaussianBlur stdDeviation="0.00041028478" id="feGaussianBlur171"></feGaussianBlur></filter><filter style="color-interpolation-filters:sRGB" id="filter171" x="-0.020024493" y="-0.036860402" width="1.039457" height="1.0737221"><feGaussianBlur stdDeviation="0.00041028478" id="feGaussianBlur172"></feGaussianBlur></filter><filter style="color-interpolation-filters:sRGB" id="filter172" x="-0.04033402" y="-0.036483714" width="1.0794942" height="1.0729675"><feGaussianBlur stdDeviation="0.00041028478" id="feGaussianBlur173"></feGaussianBlur></filter><filter style="color-interpolation-filters:sRGB" id="filter173" x="-0.037703521" y="-0.026637809" width="1.0762603" height="1.0535"><feGaussianBlur stdDeviation="0.00041028478" id="feGaussianBlur174"></feGaussianBlur></filter></defs>
<clipPath id="ArtboardFrame">
<rect height="1024" width="1366" x="0" y="0" id="rect75"></rect>
</clipPath>


<g id="layer1"><g id="g3" style="clip-rule:evenodd;fill-rule:nonzero;stroke-linecap:round;stroke-linejoin:round;display:inline;opacity:1" transform="translate(-57.998888,127.969)"><path d="m 488.003,738.458 v 115.465 c 0,0 22.959,-9.461 41.113,-14.931 18.154,-5.47 31.503,-6.886 31.503,-6.886 l -0.317,-57.907 v 136.594 l 122.584,74.585 121.311,-74.585 0.384,-126.849 v 48.244 c 0,0 15.633,1.8 33.832,6.804 18.198,5.003 38.962,13.032 38.962,13.032 V 738.458 Z" fill="url(#LinearGradient_2)" fill-rule="nonzero" opacity="1" stroke="#000000" stroke-linecap="round" stroke-linejoin="round" stroke-width="17.3673" id="path78" style="fill:url(#LinearGradient_2);filter:url(#filter164)"></path><path d="m 877.432,745.851 -0.057,106.268 c 0,0 23.309,8.594 43.561,18.672 20.251,10.078 37.445,21.639 37.445,21.639 l -1.069,-192.08 z" fill="url(#LinearGradient_3)" fill-rule="nonzero" opacity="1" stroke="#000000" stroke-linecap="round" stroke-linejoin="round" stroke-width="17.3673" id="path79" style="opacity:1;fill:url(#LinearGradient_3);filter:url(#filter165)"></path><path d="m 488.003,745.653 -0.56,108.541 c 0,0 -21.243,7.824 -41.322,17.383 -20.078,9.559 -38.993,20.853 -38.993,20.853 l 0.378,-192.08 z" fill="url(#LinearGradient_4)" fill-rule="nonzero" opacity="1" stroke="#000000" stroke-linecap="butt" stroke-linejoin="round" stroke-width="17.3673" id="path80" style="fill:url(#LinearGradient_4);filter:url(#filter163)"></path></g><path d="m 365.905,615.102 v 25.31 c -10e-4,22.683 12.081,43.674 31.724,55.013 l 253.997,146.586 c 19.644,11.342 43.807,11.342 63.45,0 L 969.024,695.425 c 19.643,-11.339 31.776,-32.33 31.776,-55.013 v -25.31 h -52.893 v 0.888 c 0,18.902 -10.126,36.386 -26.495,45.836 L 709.797,783.989 c -16.37,9.451 -36.522,9.451 -52.891,0 L 445.291,661.826 c -16.37,-9.45 -26.495,-26.934 -26.495,-45.836 v -0.888 z" fill="url(#RadialGradient_3)" fill-rule="nonzero" filter="url(#Filter)" stroke="#000000" stroke-linecap="butt" stroke-linejoin="round" stroke-width="17.3673" id="path81" style="clip-rule:evenodd;fill-rule:nonzero;stroke-linecap:round;stroke-linejoin:round;display:inline;opacity:1;fill:url(#RadialGradient_3);filter:url(#Filter)" transform="translate(-57.998888,127.969)"></path><g id="g2" style="clip-rule:evenodd;fill-rule:nonzero;stroke-linecap:round;stroke-linejoin:round;display:inline;opacity:1" transform="translate(-57.998888,127.969)"><path d="m 950.051,547.676 c 0,0 274.129,-39.32 218.319,-201.972 C 1112.56,183.052 878.8675,87.788787 880.4,89.8482 c 0,0 138.05,129.1558 14.413,184.8188 -123.635,55.663 -209.296,-76.32 -209.296,-76.32 l 85.917,79.015 z" fill="url(#RadialGradient_5)" fill-rule="nonzero" opacity="1" stroke="#000000" stroke-linecap="round" stroke-linejoin="round" stroke-width="17.3673" id="path83" style="fill:url(#RadialGradient_5);filter:url(#filter169)"></path><path d="M 892.898,679.507 999.55,618.571 c 43.52,-28.342 48.93,-36.36 67.42,-52.431 27.94,-24.29 36.2,-47.424 45.2,-72.099 27.51,-75.377 -47.2,-112.213 -83.01,-135.078 -35.819,-22.866 -86.307,105.59 -86.307,105.59 z" fill="url(#LinearGradient_5)" fill-rule="nonzero" opacity="1" stroke="#000000" stroke-linecap="round" stroke-linejoin="round" stroke-width="17.3673" id="path84" style="fill:url(#LinearGradient_5);filter:url(#filter166)"></path><path d="m 948.93,547.676 c 0,0 141.05,-25.264 193.43,-84.774 52.39,-59.51 16.11,-153.262 16.11,-153.262 l -209.54,63.798 z" fill="url(#LinearGradient_7)" fill-rule="nonzero" opacity="1" stroke="#000000" stroke-linecap="round" stroke-linejoin="round" stroke-width="17.3673" id="path86" style="fill:url(#LinearGradient_7);filter:url(#filter167)"></path><path d="m 948.93,419.7 c 0,0 182.81,-31.463 233.15,-88.679 50.34,-57.218 13.93,-146.92 13.93,-146.92 0,0 -145.37,79.506 -253.801,92.265 -108.432,12.757 -179.923,-41.232 -179.923,-41.232 z" fill="url(#LinearGradient_8)" fill-rule="nonzero" opacity="1" stroke="#000000" stroke-linecap="round" stroke-linejoin="round" stroke-width="17.3673" id="path87" style="fill:url(#LinearGradient_8);filter:url(#filter168)"></path></g><g id="g1" style="clip-rule:evenodd;fill-rule:nonzero;stroke-linecap:round;stroke-linejoin:round;display:inline;opacity:1" transform="translate(-57.998888,127.969)"><path d="m 418.352,547.676 c 0,0 -274.129,-39.32 -218.318,-201.972 55.812,-162.652 287.66279,-257.676575 287.969,-255.8558 0,0 -138.047,129.1558 -14.413,184.8188 123.635,55.663 209.296,-76.32 209.296,-76.32 l -85.917,79.015 z" fill="url(#RadialGradient_4)" fill-rule="nonzero" opacity="1" stroke="#000000" stroke-linecap="round" stroke-linejoin="round" stroke-width="17.3673" id="path82" style="clip-rule:evenodd;display:inline;opacity:1;fill:url(#RadialGradient_4);fill-rule:nonzero;stroke-linecap:round;stroke-linejoin:round;filter:url(#filter170)"></path><path d="M 472.828,679.507 366.175,618.571 c -43.517,-28.342 -48.932,-36.36 -67.417,-52.431 -27.938,-24.29 -36.2,-47.424 -45.206,-72.099 -27.509,-75.377 47.202,-112.213 83.016,-135.078 35.816,-22.866 86.305,105.59 86.305,105.59 z" fill="url(#LinearGradient_6)" fill-rule="nonzero" opacity="1" stroke="#000000" stroke-linecap="round" stroke-linejoin="round" stroke-width="17.3673" id="path85" style="clip-rule:evenodd;display:inline;opacity:1;fill:url(#LinearGradient_6);fill-rule:nonzero;stroke-linecap:round;stroke-linejoin:round;filter:url(#filter173)"></path><path d="m 417.07,547.676 c 0,0 -141.048,-25.264 -193.432,-84.774 C 171.255,403.392 207.532,309.64 207.532,309.64 l 209.538,63.798 z" fill="url(#LinearGradient_9)" fill-rule="nonzero" opacity="1" stroke="#000000" stroke-linecap="round" stroke-linejoin="round" stroke-width="17.3673" id="path88" style="fill:url(#LinearGradient_9);filter:url(#filter172)"></path><path d="m 417.07,419.7 c 0,0 -182.81,-31.463 -233.151,-88.679 -50.343,-57.218 -13.93,-146.92 -13.93,-146.92 0,0 145.372,79.506 253.802,92.265 108.432,12.757 179.923,-41.232 179.923,-41.232 z" fill="url(#LinearGradient_10)" fill-rule="nonzero" opacity="1" stroke="#000000" stroke-linecap="round" stroke-linejoin="round" stroke-width="17.3673" id="path89" style="fill:url(#LinearGradient_10);filter:url(#filter171)"></path></g><path d="m 681.84689,33.565249 -50.537,102.402601 -113.007,16.42 81.773,79.708 -19.305,112.551 101.076,-53.139 101.076,53.139 -19.302,-112.551 81.771,-79.708 -113.006,-16.42 z" fill="url(#RadialGradient_6)" fill-rule="nonzero" filter="url(#Filter_2)" stroke="#000000" stroke-linecap="butt" stroke-linejoin="round" stroke-width="17.3673" id="path90" style="clip-rule:evenodd;fill-rule:nonzero;stroke-linecap:round;stroke-linejoin:round;display:inline;opacity:1;mix-blend-mode:normal;fill:url(#RadialGradient_6);filter:url(#Filter_2)" transform="translate(-57.998888,127.969)"></path><path d="m 709.31069,785.51759 c -16.37,9.451 -36.538,9.451 -52.907,0 l -211.627,-122.184 c -16.37,-9.449 -26.454,-26.916 -26.454,-45.818 v -244.366 c 0,-18.902 10.084,-36.369 26.454,-45.82 l 211.627,-122.182 c 16.369,-9.451 36.537,-9.451 52.907,0 l 211.62803,122.182 c 16.37,9.451 26.452,26.918 26.452,45.82 v 244.366 c 0,18.902 -10.082,36.369 -26.452,45.818 z" fill="url(#LinearGradient_11)" fill-rule="nonzero" filter="url(#Filter_3)" stroke="#000000" stroke-linecap="butt" stroke-linejoin="round" stroke-width="17.3673" id="path91" style="clip-rule:evenodd;fill-rule:nonzero;stroke-linecap:round;stroke-linejoin:round;display:inline;opacity:1;mix-blend-mode:normal;fill:url(#LinearGradient_11);filter:url(#Filter_3)" transform="translate(-57.998888,127.969)"></path><g fill="#000000" opacity="1" stroke="none" id="g96" style="clip-rule:evenodd;fill-rule:nonzero;stroke-linecap:round;stroke-linejoin:round;display:inline;opacity:1" transform="translate(-57.998888,127.969)">
<path d="m 534.332,330.643 c 0,-1.778 -0.032,-3.541 -0.096,-5.287 -0.063,-1.747 -0.254,-3.509 -0.571,-5.287 -0.191,-1.27 -0.461,-2.493 -0.81,-3.668 -0.349,-1.175 -0.524,-2.397 -0.524,-3.668 0,-1.651 0.317,-3.191 0.953,-4.62 0.635,-1.429 1.492,-2.683 2.572,-3.763 1.079,-1.08 2.334,-1.937 3.763,-2.572 1.429,-0.635 2.969,-0.953 4.62,-0.953 2.35,0 4.319,0.508 5.906,1.525 1.588,1.016 2.906,2.349 3.954,4.001 1.048,1.651 1.842,3.54 2.382,5.668 0.539,2.127 0.936,4.287 1.19,6.478 0.254,2.191 0.397,4.35 0.429,6.478 0.032,2.127 0.048,4.017 0.048,5.668 0,3.493 -0.143,6.97 -0.429,10.432 -0.286,3.461 -0.587,6.906 -0.905,10.336 0.699,0.063 1.365,0.095 2.001,0.095 0.635,0 1.301,0 2,0 1.715,0 3.446,-0.047 5.192,-0.143 1.747,-0.095 3.445,-0.397 5.097,-0.905 0.825,-0.254 1.619,-0.476 2.381,-0.667 0.762,-0.19 1.588,-0.285 2.477,-0.285 1.651,0 3.192,0.317 4.621,0.952 1.429,0.635 2.683,1.493 3.763,2.572 1.079,1.08 1.937,2.334 2.572,3.763 0.635,1.429 0.952,2.969 0.952,4.621 0,2.223 -0.444,4.112 -1.333,5.668 -0.89,1.556 -2.08,2.842 -3.573,3.858 -1.492,1.016 -3.191,1.826 -5.097,2.429 -1.905,0.604 -3.858,1.048 -5.858,1.334 -2.001,0.286 -3.986,0.461 -5.954,0.524 -1.969,0.064 -3.747,0.095 -5.335,0.095 -2.032,0 -4.033,-0.079 -6.002,-0.238 -1.969,-0.159 -3.969,-0.365 -6.002,-0.619 -2.032,-0.254 -4.032,-0.588 -6.001,-1 -1.969,-0.413 -3.747,-1.064 -5.335,-1.953 -1.588,-0.889 -2.858,-2.128 -3.811,-3.716 -0.952,-1.587 -1.429,-3.651 -1.429,-6.192 0,-1.397 0.08,-2.794 0.239,-4.191 0.158,-1.398 0.301,-2.795 0.428,-4.192 0.381,-3.811 0.731,-7.574 1.048,-11.289 0.318,-3.715 0.477,-7.478 0.477,-11.289 z m 9.812,-25.054 c 1.143,0 2.143,0.285 3.001,0.857 0.857,0.572 1.587,1.302 2.191,2.191 0.603,0.889 1.111,1.858 1.524,2.906 0.413,1.047 0.746,2.048 1,3 0.191,0.826 0.731,1.239 1.62,1.239 0.444,0 0.825,-0.159 1.143,-0.476 0.317,-0.318 0.476,-0.699 0.476,-1.144 0,-0.317 -0.111,-0.857 -0.333,-1.619 -0.222,-0.762 -0.397,-1.302 -0.524,-1.62 -0.445,-1.079 -0.985,-2.143 -1.62,-3.191 -0.635,-1.048 -1.365,-1.969 -2.191,-2.763 -0.825,-0.794 -1.762,-1.429 -2.81,-1.905 -1.048,-0.476 -2.207,-0.714 -3.477,-0.714 -0.635,0 -1.255,0.079 -1.858,0.238 -0.603,0.158 -0.905,0.651 -0.905,1.476 0,0.889 0.302,1.366 0.905,1.429 0.603,0.064 1.223,0.096 1.858,0.096 z m 31.437,48.966 c 1.651,0 3.064,0.444 4.239,1.333 1.175,0.889 2.049,2.064 2.62,3.525 0.318,0.762 0.858,1.143 1.62,1.143 0.444,0 0.825,-0.158 1.143,-0.476 0.317,-0.318 0.476,-0.699 0.476,-1.143 0,-0.381 -0.079,-0.762 -0.238,-1.143 -0.159,-0.381 -0.302,-0.731 -0.429,-1.048 -0.825,-1.652 -2.127,-2.985 -3.905,-4.001 -1.779,-1.017 -3.589,-1.525 -5.431,-1.525 -0.381,0 -0.841,0.032 -1.381,0.096 -0.54,0.063 -1.08,0.19 -1.619,0.381 -0.54,0.19 -1.001,0.444 -1.382,0.762 -0.381,0.317 -0.571,0.73 -0.571,1.238 0,0.445 0.158,0.826 0.476,1.143 0.318,0.318 0.699,0.477 1.143,0.477 0.572,0 1.112,-0.127 1.62,-0.381 0.508,-0.254 1.048,-0.381 1.619,-0.381 z" id="path92"></path>
<path d="m 594.634,330.643 c 0,-1.778 -0.032,-3.541 -0.095,-5.287 -0.064,-1.747 -0.254,-3.509 -0.572,-5.287 -0.254,-1.334 -0.54,-2.62 -0.857,-3.858 -0.318,-1.239 -0.476,-2.557 -0.476,-3.954 0,-1.715 0.301,-3.318 0.905,-4.811 0.603,-1.492 1.429,-2.794 2.476,-3.906 1.048,-1.111 2.303,-2 3.763,-2.667 1.461,-0.667 3.049,-1 4.764,-1 3.112,0 6.176,0.222 9.193,0.666 3.016,0.445 6.081,0.667 9.193,0.667 1.842,0 3.62,-0.206 5.335,-0.619 1.714,-0.413 3.429,-0.619 5.144,-0.619 1.651,0 3.191,0.317 4.62,0.953 1.429,0.635 2.683,1.492 3.763,2.572 1.08,1.079 1.937,2.334 2.572,3.763 0.635,1.429 0.953,2.969 0.953,4.62 0,3.366 -0.953,5.954 -2.858,7.764 -1.905,1.81 -4.255,3.128 -7.05,3.954 -2.794,0.825 -5.747,1.27 -8.859,1.333 -3.112,0.064 -5.875,0.032 -8.288,-0.095 l 0.095,1.429 h 0.381 l 0.667,0.095 h 0.381 c 0.889,0 1.731,-0.079 2.525,-0.238 0.793,-0.159 1.635,-0.238 2.524,-0.238 1.651,0 3.191,0.317 4.62,0.953 1.429,0.635 2.684,1.492 3.763,2.572 1.08,1.079 1.937,2.334 2.572,3.763 0.636,1.429 0.953,2.969 0.953,4.62 0,2.604 -0.619,4.763 -1.858,6.478 -1.238,1.715 -2.81,3.048 -4.715,4.001 -1.905,0.953 -4.001,1.556 -6.288,1.81 -2.286,0.254 -4.477,0.254 -6.573,0 l -0.19,1.334 c 0.698,0.063 1.365,0.095 2,0.095 0.635,0 1.302,0 2.001,0 1.714,0 3.445,-0.047 5.192,-0.143 1.746,-0.095 3.445,-0.397 5.096,-0.905 0.826,-0.254 1.62,-0.476 2.382,-0.667 0.762,-0.19 1.588,-0.285 2.477,-0.285 1.651,0 3.191,0.317 4.62,0.952 1.429,0.635 2.683,1.493 3.763,2.572 1.08,1.08 1.937,2.334 2.572,3.763 0.635,1.429 0.953,2.969 0.953,4.621 0,2.223 -0.445,4.112 -1.334,5.668 -0.889,1.556 -2.08,2.842 -3.572,3.858 -1.493,1.016 -3.192,1.826 -5.097,2.429 -1.905,0.604 -3.858,1.048 -5.859,1.334 -2,0.286 -3.985,0.461 -5.954,0.524 -1.969,0.064 -3.747,0.095 -5.335,0.095 -2.032,0 -4.032,-0.079 -6.001,-0.238 -1.969,-0.159 -3.97,-0.365 -6.002,-0.619 -1.969,-0.254 -3.953,-0.588 -5.954,-1 -2.001,-0.413 -3.779,-1.08 -5.335,-2.001 -1.556,-0.921 -2.826,-2.159 -3.81,-3.715 -0.985,-1.556 -1.477,-3.604 -1.477,-6.145 0,-1.397 0.079,-2.794 0.238,-4.191 0.159,-1.398 0.302,-2.795 0.429,-4.192 0.381,-3.811 0.73,-7.574 1.048,-11.289 0.317,-3.715 0.476,-7.478 0.476,-11.289 z m 32.962,-24.673 c 0.825,0 1.619,-0.096 2.381,-0.286 l 1.525,-0.191 c 0.889,-0.19 1.683,-0.286 2.381,-0.286 0.508,0 0.985,0.096 1.429,0.286 1.207,0.381 2.159,0.905 2.858,1.572 0.699,0.667 1.175,1.636 1.429,2.906 0.191,0.952 0.73,1.429 1.62,1.429 0.444,0 0.825,-0.159 1.143,-0.477 0.317,-0.317 0.476,-0.698 0.476,-1.143 0,-1.079 -0.27,-2.096 -0.81,-3.048 -0.54,-0.953 -1.238,-1.779 -2.096,-2.477 -0.857,-0.699 -1.81,-1.27 -2.857,-1.715 -1.048,-0.445 -2.08,-0.667 -3.097,-0.667 -0.952,0 -1.905,0.095 -2.857,0.286 l -2.001,0.191 c -0.953,0.19 -1.905,0.285 -2.858,0.285 -0.445,0 -0.826,0.159 -1.143,0.477 -0.318,0.317 -0.477,0.698 -0.477,1.143 0,0.889 0.334,1.397 1.001,1.524 0.667,0.127 1.318,0.191 1.953,0.191 z m 5.525,31.246 c 0.445,0 0.842,-0.158 1.191,-0.476 0.349,-0.317 0.492,-0.698 0.429,-1.143 -0.064,-0.889 -0.334,-1.778 -0.81,-2.667 -0.477,-0.89 -1.048,-1.683 -1.715,-2.382 -0.667,-0.699 -1.429,-1.27 -2.286,-1.715 -0.858,-0.444 -1.763,-0.667 -2.715,-0.667 -0.445,0 -0.826,0.159 -1.144,0.477 -0.317,0.317 -0.476,0.698 -0.476,1.143 0,0.889 0.476,1.429 1.429,1.619 1.461,0.318 2.429,0.81 2.906,1.477 0.476,0.667 1,1.667 1.572,3.001 0.317,0.889 0.857,1.333 1.619,1.333 z m 2.667,17.434 c 1.906,0 3.382,0.397 4.43,1.191 1.048,0.794 1.953,2.016 2.715,3.667 0.381,0.699 0.889,1.048 1.525,1.048 0.444,0 0.825,-0.158 1.143,-0.476 0.317,-0.318 0.476,-0.699 0.476,-1.143 0,-0.318 -0.095,-0.683 -0.286,-1.096 -0.19,-0.413 -0.349,-0.778 -0.476,-1.095 -2.032,-3.557 -5.208,-5.335 -9.527,-5.335 -0.381,0 -0.936,0.048 -1.667,0.143 -0.73,0.095 -1.445,0.254 -2.143,0.476 -0.699,0.222 -1.318,0.508 -1.858,0.857 -0.54,0.35 -0.81,0.778 -0.81,1.287 0,0.444 0.159,0.825 0.477,1.143 0.317,0.317 0.698,0.476 1.143,0.476 0.826,0 1.619,-0.19 2.382,-0.572 0.762,-0.381 1.587,-0.571 2.476,-0.571 z" id="path93"></path>
<path d="m 681.23,375.037 c -2.287,0 -4.367,-0.556 -6.24,-1.668 -1.874,-1.111 -3.445,-2.588 -4.716,-4.429 -0.889,-1.271 -1.714,-2.89 -2.477,-4.859 -0.762,-1.969 -1.444,-4.049 -2.048,-6.24 -0.603,-2.191 -1.159,-4.35 -1.667,-6.478 -0.508,-2.127 -0.953,-3.985 -1.334,-5.573 -0.571,-2.159 -1.159,-4.303 -1.762,-6.43 -0.603,-2.128 -1.302,-4.192 -2.096,-6.192 -0.794,-2.001 -1.73,-3.954 -2.81,-5.859 -1.08,-1.905 -2.35,-3.715 -3.811,-5.43 -1.016,-1.207 -1.794,-2.445 -2.334,-3.716 -0.54,-1.27 -0.809,-2.699 -0.809,-4.286 0,-1.652 0.317,-3.192 0.952,-4.621 0.635,-1.429 1.493,-2.683 2.572,-3.763 1.08,-1.079 2.334,-1.937 3.763,-2.572 1.429,-0.635 2.969,-0.953 4.621,-0.953 2.985,0 5.652,1.048 8.002,3.144 2.35,2.096 4.43,4.621 6.24,7.574 1.81,2.953 3.366,6.065 4.668,9.336 1.302,3.27 2.334,6.049 3.096,8.335 0.889,-2.032 1.984,-4.382 3.286,-7.049 1.302,-2.668 2.747,-5.319 4.335,-7.955 1.588,-2.635 3.287,-5.096 5.097,-7.383 1.81,-2.286 3.636,-4.001 5.477,-5.144 1.842,-1.207 3.97,-1.81 6.383,-1.81 1.651,0 3.191,0.317 4.62,0.952 1.429,0.636 2.684,1.493 3.763,2.573 1.08,1.079 1.937,2.334 2.573,3.763 0.635,1.429 0.952,2.969 0.952,4.62 0,1.397 -0.19,2.62 -0.571,3.668 -0.381,1.048 -0.874,2 -1.477,2.858 -0.603,0.857 -1.286,1.698 -2.048,2.524 -0.762,0.826 -1.556,1.747 -2.382,2.763 -1.461,1.842 -2.81,3.89 -4.049,6.144 -1.238,2.255 -2.365,4.605 -3.381,7.05 -1.017,2.445 -1.969,4.89 -2.858,7.335 -0.89,2.445 -1.715,4.779 -2.477,7.002 -0.445,1.334 -0.921,2.747 -1.429,4.24 -0.508,1.492 -1.048,2.969 -1.62,4.429 -0.571,1.461 -1.206,2.874 -1.905,4.24 -0.699,1.365 -1.493,2.619 -2.382,3.763 -1.46,1.841 -3.175,3.318 -5.144,4.429 -1.969,1.112 -4.16,1.668 -6.573,1.668 z m 33.057,-62.304 c 0.127,1.017 0.666,1.525 1.619,1.525 0.445,0 0.826,-0.159 1.143,-0.477 0.318,-0.317 0.477,-0.698 0.477,-1.143 0,-1.334 -0.27,-2.588 -0.81,-3.763 -0.54,-1.175 -1.254,-2.207 -2.144,-3.096 -0.889,-0.889 -1.937,-1.588 -3.143,-2.096 -1.207,-0.508 -2.445,-0.762 -3.716,-0.762 -0.698,0 -1.413,0.08 -2.143,0.238 -0.73,0.159 -1.096,0.683 -1.096,1.572 0,0.635 0.223,1.064 0.667,1.286 0.445,0.223 0.921,0.334 1.429,0.334 l 0.858,-0.096 c 2.032,0 3.604,0.588 4.715,1.763 1.112,1.175 1.826,2.747 2.144,4.715 z m -52.777,-5.525 c 1.651,0 3.064,0.603 4.239,1.81 1.175,1.207 2.207,2.413 3.096,3.62 0.381,0.445 0.826,0.667 1.334,0.667 0.445,0 0.826,-0.159 1.143,-0.476 0.318,-0.318 0.477,-0.699 0.477,-1.144 0,-0.444 -0.127,-0.841 -0.382,-1.19 -0.254,-0.35 -0.508,-0.683 -0.762,-1.001 -1.079,-1.46 -2.413,-2.762 -4.001,-3.905 -1.587,-1.144 -3.302,-1.715 -5.144,-1.715 -0.318,0 -0.715,0.047 -1.191,0.143 -0.476,0.095 -0.937,0.238 -1.381,0.428 -0.445,0.191 -0.826,0.429 -1.143,0.715 -0.318,0.286 -0.477,0.651 -0.477,1.095 0,0.445 0.159,0.826 0.477,1.144 0.317,0.317 0.698,0.476 1.143,0.476 0.508,0 0.937,-0.111 1.286,-0.334 0.349,-0.222 0.778,-0.333 1.286,-0.333 z" id="path94"></path>
<path d="m 725.433,330.643 c 0,-1.778 -0.032,-3.541 -0.096,-5.287 -0.063,-1.747 -0.254,-3.509 -0.571,-5.287 -0.254,-1.334 -0.54,-2.62 -0.858,-3.858 -0.317,-1.239 -0.476,-2.557 -0.476,-3.954 0,-1.715 0.302,-3.318 0.905,-4.811 0.603,-1.492 1.429,-2.794 2.477,-3.906 1.048,-1.111 2.302,-2 3.763,-2.667 1.461,-0.667 3.048,-1 4.763,-1 3.112,0 6.176,0.222 9.193,0.666 3.017,0.445 6.081,0.667 9.193,0.667 1.842,0 3.62,-0.206 5.335,-0.619 1.715,-0.413 3.43,-0.619 5.144,-0.619 1.652,0 3.192,0.317 4.621,0.953 1.429,0.635 2.683,1.492 3.763,2.572 1.079,1.079 1.937,2.334 2.572,3.763 0.635,1.429 0.952,2.969 0.952,4.62 0,3.366 -0.952,5.954 -2.857,7.764 -1.906,1.81 -4.256,3.128 -7.05,3.954 -2.794,0.825 -5.748,1.27 -8.86,1.333 -3.112,0.064 -5.874,0.032 -8.288,-0.095 l 0.096,1.429 h 0.381 l 0.666,0.095 h 0.382 c 0.889,0 1.73,-0.079 2.524,-0.238 0.794,-0.159 1.635,-0.238 2.525,-0.238 1.651,0 3.191,0.317 4.62,0.953 1.429,0.635 2.683,1.492 3.763,2.572 1.08,1.079 1.937,2.334 2.572,3.763 0.635,1.429 0.953,2.969 0.953,4.62 0,2.604 -0.62,4.763 -1.858,6.478 -1.238,1.715 -2.81,3.048 -4.716,4.001 -1.905,0.953 -4.001,1.556 -6.287,1.81 -2.286,0.254 -4.478,0.254 -6.573,0 l -0.191,1.334 c 0.699,0.063 1.366,0.095 2.001,0.095 0.635,0 1.302,0 2,0 1.715,0 3.446,-0.047 5.192,-0.143 1.747,-0.095 3.446,-0.397 5.097,-0.905 0.825,-0.254 1.619,-0.476 2.381,-0.667 0.763,-0.19 1.588,-0.285 2.477,-0.285 1.652,0 3.192,0.317 4.621,0.952 1.429,0.635 2.683,1.493 3.763,2.572 1.079,1.08 1.937,2.334 2.572,3.763 0.635,1.429 0.952,2.969 0.952,4.621 0,2.223 -0.444,4.112 -1.333,5.668 -0.889,1.556 -2.08,2.842 -3.573,3.858 -1.492,1.016 -3.191,1.826 -5.096,2.429 -1.906,0.604 -3.859,1.048 -5.859,1.334 -2.001,0.286 -3.985,0.461 -5.954,0.524 -1.969,0.064 -3.747,0.095 -5.335,0.095 -2.032,0 -4.033,-0.079 -6.002,-0.238 -1.969,-0.159 -3.969,-0.365 -6.001,-0.619 -1.969,-0.254 -3.954,-0.588 -5.954,-1 -2.001,-0.413 -3.779,-1.08 -5.335,-2.001 -1.556,-0.921 -2.826,-2.159 -3.811,-3.715 -0.984,-1.556 -1.476,-3.604 -1.476,-6.145 0,-1.397 0.079,-2.794 0.238,-4.191 0.158,-1.398 0.301,-2.795 0.428,-4.192 0.381,-3.811 0.731,-7.574 1.048,-11.289 0.318,-3.715 0.477,-7.478 0.477,-11.289 z m 32.961,-24.673 c 0.826,0 1.62,-0.096 2.382,-0.286 l 1.524,-0.191 c 0.889,-0.19 1.683,-0.286 2.382,-0.286 0.508,0 0.984,0.096 1.429,0.286 1.206,0.381 2.159,0.905 2.858,1.572 0.698,0.667 1.175,1.636 1.429,2.906 0.19,0.952 0.73,1.429 1.619,1.429 0.445,0 0.826,-0.159 1.143,-0.477 0.318,-0.317 0.477,-0.698 0.477,-1.143 0,-1.079 -0.27,-2.096 -0.81,-3.048 -0.54,-0.953 -1.239,-1.779 -2.096,-2.477 -0.857,-0.699 -1.81,-1.27 -2.858,-1.715 -1.048,-0.445 -2.08,-0.667 -3.096,-0.667 -0.953,0 -1.905,0.095 -2.858,0.286 l -2.001,0.191 c -0.952,0.19 -1.905,0.285 -2.857,0.285 -0.445,0 -0.826,0.159 -1.144,0.477 -0.317,0.317 -0.476,0.698 -0.476,1.143 0,0.889 0.333,1.397 1,1.524 0.667,0.127 1.318,0.191 1.953,0.191 z m 5.526,31.246 c 0.444,0 0.841,-0.158 1.19,-0.476 0.35,-0.317 0.493,-0.698 0.429,-1.143 -0.063,-0.889 -0.333,-1.778 -0.81,-2.667 -0.476,-0.89 -1.048,-1.683 -1.714,-2.382 -0.667,-0.699 -1.429,-1.27 -2.287,-1.715 -0.857,-0.444 -1.762,-0.667 -2.715,-0.667 -0.444,0 -0.825,0.159 -1.143,0.477 -0.318,0.317 -0.476,0.698 -0.476,1.143 0,0.889 0.476,1.429 1.429,1.619 1.46,0.318 2.429,0.81 2.905,1.477 0.477,0.667 1,1.667 1.572,3.001 0.318,0.889 0.857,1.333 1.62,1.333 z m 2.667,17.434 c 1.905,0 3.382,0.397 4.43,1.191 1.048,0.794 1.953,2.016 2.715,3.667 0.381,0.699 0.889,1.048 1.524,1.048 0.445,0 0.826,-0.158 1.143,-0.476 0.318,-0.318 0.477,-0.699 0.477,-1.143 0,-0.318 -0.096,-0.683 -0.286,-1.096 -0.191,-0.413 -0.35,-0.778 -0.477,-1.095 -2.032,-3.557 -5.207,-5.335 -9.526,-5.335 -0.381,0 -0.937,0.048 -1.667,0.143 -0.731,0.095 -1.445,0.254 -2.144,0.476 -0.698,0.222 -1.317,0.508 -1.857,0.857 -0.54,0.35 -0.81,0.778 -0.81,1.287 0,0.444 0.159,0.825 0.476,1.143 0.318,0.317 0.699,0.476 1.143,0.476 0.826,0 1.62,-0.19 2.382,-0.572 0.762,-0.381 1.588,-0.571 2.477,-0.571 z" id="path95"></path>
<path d="m 785.735,330.643 c 0,-1.778 -0.032,-3.541 -0.095,-5.287 -0.064,-1.747 -0.254,-3.509 -0.572,-5.287 -0.19,-1.27 -0.46,-2.493 -0.809,-3.668 -0.35,-1.175 -0.524,-2.397 -0.524,-3.668 0,-1.651 0.317,-3.191 0.952,-4.62 0.635,-1.429 1.493,-2.683 2.572,-3.763 1.08,-1.08 2.334,-1.937 3.763,-2.572 1.429,-0.635 2.969,-0.953 4.621,-0.953 2.35,0 4.318,0.508 5.906,1.525 1.588,1.016 2.906,2.349 3.954,4.001 1.048,1.651 1.841,3.54 2.381,5.668 0.54,2.127 0.937,4.287 1.191,6.478 0.254,2.191 0.397,4.35 0.429,6.478 0.032,2.127 0.047,4.017 0.047,5.668 0,3.493 -0.142,6.97 -0.428,10.432 -0.286,3.461 -0.588,6.906 -0.905,10.336 0.698,0.063 1.365,0.095 2,0.095 0.635,0 1.302,0 2.001,0 1.715,0 3.445,-0.047 5.192,-0.143 1.746,-0.095 3.445,-0.397 5.096,-0.905 0.826,-0.254 1.62,-0.476 2.382,-0.667 0.762,-0.19 1.588,-0.285 2.477,-0.285 1.651,0 3.191,0.317 4.62,0.952 1.429,0.635 2.684,1.493 3.763,2.572 1.08,1.08 1.937,2.334 2.572,3.763 0.635,1.429 0.953,2.969 0.953,4.621 0,2.223 -0.445,4.112 -1.334,5.668 -0.889,1.556 -2.08,2.842 -3.572,3.858 -1.493,1.016 -3.191,1.826 -5.097,2.429 -1.905,0.604 -3.858,1.048 -5.859,1.334 -2,0.286 -3.985,0.461 -5.954,0.524 -1.968,0.064 -3.747,0.095 -5.334,0.095 -2.033,0 -4.033,-0.079 -6.002,-0.238 -1.969,-0.159 -3.969,-0.365 -6.002,-0.619 -2.032,-0.254 -4.033,-0.588 -6.001,-1 -1.969,-0.413 -3.748,-1.064 -5.335,-1.953 -1.588,-0.889 -2.858,-2.128 -3.811,-3.716 -0.953,-1.587 -1.429,-3.651 -1.429,-6.192 0,-1.397 0.08,-2.794 0.238,-4.191 0.159,-1.398 0.302,-2.795 0.429,-4.192 0.381,-3.811 0.73,-7.574 1.048,-11.289 0.317,-3.715 0.476,-7.478 0.476,-11.289 z m 9.812,-25.054 c 1.144,0 2.144,0.285 3.001,0.857 0.858,0.572 1.588,1.302 2.191,2.191 0.604,0.889 1.112,1.858 1.525,2.906 0.412,1.047 0.746,2.048 1,3 0.19,0.826 0.73,1.239 1.619,1.239 0.445,0 0.826,-0.159 1.144,-0.476 0.317,-0.318 0.476,-0.699 0.476,-1.144 0,-0.317 -0.111,-0.857 -0.333,-1.619 -0.223,-0.762 -0.397,-1.302 -0.524,-1.62 -0.445,-1.079 -0.985,-2.143 -1.62,-3.191 -0.635,-1.048 -1.365,-1.969 -2.191,-2.763 -0.826,-0.794 -1.762,-1.429 -2.81,-1.905 -1.048,-0.476 -2.207,-0.714 -3.478,-0.714 -0.635,0 -1.254,0.079 -1.857,0.238 -0.604,0.158 -0.905,0.651 -0.905,1.476 0,0.889 0.301,1.366 0.905,1.429 0.603,0.064 1.222,0.096 1.857,0.096 z m 31.438,48.966 c 1.651,0 3.064,0.444 4.239,1.333 1.175,0.889 2.048,2.064 2.62,3.525 0.317,0.762 0.857,1.143 1.619,1.143 0.445,0 0.826,-0.158 1.144,-0.476 0.317,-0.318 0.476,-0.699 0.476,-1.143 0,-0.381 -0.079,-0.762 -0.238,-1.143 -0.159,-0.381 -0.302,-0.731 -0.429,-1.048 -0.826,-1.652 -2.128,-2.985 -3.906,-4.001 -1.778,-1.017 -3.588,-1.525 -5.43,-1.525 -0.381,0 -0.841,0.032 -1.381,0.096 -0.54,0.063 -1.08,0.19 -1.62,0.381 -0.54,0.19 -1,0.444 -1.381,0.762 -0.381,0.317 -0.572,0.73 -0.572,1.238 0,0.445 0.159,0.826 0.477,1.143 0.317,0.318 0.698,0.477 1.143,0.477 0.571,0 1.111,-0.127 1.619,-0.381 0.508,-0.254 1.048,-0.381 1.62,-0.381 z" id="path96"></path>
</g><g fill="#000000" opacity="1" stroke="none" id="g111" style="clip-rule:evenodd;fill-rule:nonzero;stroke-linecap:round;stroke-linejoin:round;display:inline;opacity:1" transform="translate(-57.998888,127.969)">
<path d="m 558.795,684.22 c 0,-1.679 0.239,-3.39 0.719,-5.135 0.479,-1.745 1.172,-3.376 2.078,-4.895 0.905,-1.518 2.024,-2.85 3.356,-3.996 1.332,-1.145 2.851,-1.971 4.556,-2.477 0.532,-0.16 1.072,-0.287 1.618,-0.38 0.546,-0.093 1.099,-0.14 1.658,-0.14 2.051,0 3.83,0.453 5.335,1.359 1.505,0.906 2.757,2.078 3.756,3.516 0.999,1.439 1.745,3.057 2.237,4.855 0.493,1.798 0.74,3.603 0.74,5.415 0,1.465 -0.147,2.937 -0.44,4.415 -0.293,1.479 -0.759,2.884 -1.398,4.216 -0.64,1.332 -1.459,2.544 -2.458,3.636 -0.999,1.092 -2.204,1.958 -3.616,2.597 -0.773,0.373 -1.585,0.66 -2.438,0.859 -0.852,0.2 -1.704,0.3 -2.557,0.3 -2.078,0 -3.936,-0.36 -5.574,-1.079 -1.638,-0.719 -3.017,-1.718 -4.136,-2.997 -1.119,-1.278 -1.971,-2.777 -2.557,-4.495 -0.586,-1.718 -0.879,-3.576 -0.879,-5.574 z m 23.136,-8.192 c 0.186,0 0.346,-0.066 0.479,-0.2 0.133,-0.133 0.2,-0.293 0.2,-0.479 0,-0.16 -0.06,-0.366 -0.18,-0.619 -0.12,-0.254 -0.22,-0.447 -0.3,-0.58 -0.665,-1.225 -1.458,-2.331 -2.377,-3.316 -0.919,-0.986 -2.045,-1.732 -3.377,-2.238 -0.239,-0.107 -0.546,-0.213 -0.919,-0.32 -0.373,-0.106 -0.692,-0.16 -0.959,-0.16 -0.186,0 -0.346,0.067 -0.479,0.2 -0.133,0.133 -0.2,0.293 -0.2,0.48 0,0.346 0.187,0.572 0.56,0.679 0.213,0.053 0.426,0.1 0.639,0.14 0.213,0.04 0.426,0.1 0.639,0.18 0.719,0.239 1.352,0.559 1.898,0.959 0.546,0.399 1.046,0.859 1.499,1.378 0.453,0.52 0.859,1.072 1.218,1.659 0.36,0.586 0.7,1.198 1.019,1.838 0.134,0.266 0.347,0.399 0.64,0.399 z" id="path101"></path>
<path d="m 586.826,685.429 h 9.794 v 3.61 h -9.794 z" id="path102"></path>
<path d="m 599.713,680.703 c 0,-1.012 -0.02,-2.024 -0.06,-3.036 -0.04,-1.013 -0.114,-2.025 -0.22,-3.037 -0.053,-0.427 -0.107,-0.839 -0.16,-1.239 -0.053,-0.4 -0.08,-0.813 -0.08,-1.239 0,-0.692 0.133,-1.338 0.4,-1.938 0.266,-0.599 0.626,-1.125 1.079,-1.578 0.452,-0.453 0.979,-0.813 1.578,-1.079 0.599,-0.266 1.245,-0.4 1.938,-0.4 0.213,0 0.42,0.014 0.619,0.04 0.2,0.027 0.407,0.067 0.62,0.12 0.612,-0.133 1.232,-0.24 1.858,-0.319 0.626,-0.08 1.245,-0.12 1.858,-0.12 1.705,0 3.33,0.279 4.875,0.839 1.545,0.559 2.91,1.352 4.096,2.377 1.185,1.026 2.137,2.265 2.857,3.717 0.719,1.451 1.092,3.083 1.118,4.894 0.054,1.679 -0.126,3.164 -0.539,4.456 -0.413,1.292 -0.972,2.404 -1.678,3.336 -0.706,0.933 -1.519,1.705 -2.438,2.318 -0.919,0.613 -1.871,1.086 -2.857,1.418 -0.985,0.333 -1.958,0.527 -2.917,0.58 -0.959,0.053 -1.838,0 -2.637,-0.16 0,0.959 -0.053,1.898 -0.16,2.817 -0.106,0.919 -0.34,1.745 -0.699,2.478 -0.36,0.732 -0.879,1.318 -1.559,1.758 -0.679,0.439 -1.578,0.659 -2.697,0.659 -0.692,0 -1.338,-0.133 -1.938,-0.4 -0.599,-0.266 -1.125,-0.626 -1.578,-1.078 -0.453,-0.453 -0.813,-0.979 -1.079,-1.579 -0.266,-0.599 -0.4,-1.245 -0.4,-1.938 0,-2.131 0.134,-4.242 0.4,-6.333 0.266,-2.091 0.4,-4.203 0.4,-6.334 z m 20.418,-2.517 c 0.187,0 0.347,-0.067 0.48,-0.2 0.133,-0.133 0.2,-0.293 0.2,-0.479 0,-1.093 -0.32,-2.211 -0.959,-3.357 -0.64,-1.145 -1.452,-2.178 -2.438,-3.097 -0.985,-0.919 -2.064,-1.671 -3.236,-2.257 -1.172,-0.586 -2.291,-0.879 -3.357,-0.879 -0.186,0 -0.346,0.066 -0.479,0.199 -0.134,0.134 -0.2,0.293 -0.2,0.48 0,0.213 0.126,0.386 0.379,0.519 0.253,0.134 0.547,0.24 0.88,0.32 0.332,0.08 0.665,0.147 0.998,0.2 0.333,0.053 0.593,0.12 0.78,0.2 1.332,0.532 2.53,1.365 3.596,2.497 1.066,1.132 1.838,2.364 2.318,3.696 0.053,0.16 0.099,0.36 0.139,0.6 0.04,0.239 0.094,0.472 0.16,0.699 0.067,0.226 0.16,0.426 0.28,0.599 0.12,0.173 0.273,0.26 0.459,0.26 z" id="path103"></path>
<path d="m 625.046,685.099 c 0,-0.4 -0.006,-0.966 -0.02,-1.698 -0.013,-0.733 -0.04,-1.486 -0.08,-2.258 -0.039,-0.773 -0.106,-1.505 -0.199,-2.198 -0.094,-0.692 -0.22,-1.185 -0.38,-1.478 -0.16,-0.293 -0.32,-0.526 -0.479,-0.7 -0.16,-0.173 -0.307,-0.353 -0.44,-0.539 -0.133,-0.186 -0.24,-0.406 -0.32,-0.659 -0.08,-0.253 -0.12,-0.62 -0.12,-1.099 0,-1.119 0.387,-2.065 1.159,-2.837 0.773,-0.773 1.719,-1.159 2.837,-1.159 0.986,0 1.818,0.266 2.498,0.799 0.679,0.533 1.245,1.226 1.698,2.078 0.453,0.852 0.799,1.811 1.039,2.877 0.24,1.066 0.419,2.131 0.539,3.197 0.12,1.065 0.193,2.091 0.22,3.077 0.027,0.985 0.04,1.811 0.04,2.477 0,1.012 -0.02,2.038 -0.06,3.077 -0.04,1.039 -0.086,2.064 -0.14,3.077 -0.026,0.745 -0.06,1.545 -0.1,2.397 -0.04,0.853 -0.179,1.638 -0.419,2.358 -0.24,0.719 -0.633,1.318 -1.179,1.798 -0.546,0.479 -1.365,0.719 -2.457,0.719 -1.119,0 -2.065,-0.386 -2.837,-1.159 -0.773,-0.772 -1.159,-1.718 -1.159,-2.837 0,-1.572 0.06,-3.123 0.18,-4.655 0.119,-1.532 0.179,-3.083 0.179,-4.655 z m 9.99,2.237 c -0.24,0 -0.426,0.094 -0.559,0.28 -0.134,0.187 -0.253,0.36 -0.36,0.52 -0.346,0.586 -0.599,1.252 -0.759,1.998 -0.16,0.745 -0.293,1.498 -0.4,2.257 -0.106,0.759 -0.226,1.505 -0.359,2.238 -0.134,0.733 -0.347,1.385 -0.64,1.958 -0.293,0.573 -0.706,1.032 -1.239,1.378 -0.532,0.347 -1.238,0.52 -2.117,0.52 -1.119,0 -2.065,-0.386 -2.837,-1.159 -0.773,-0.772 -1.159,-1.718 -1.159,-2.837 0,-1.572 0.193,-3.243 0.579,-5.015 0.386,-1.771 0.993,-3.41 1.818,-4.915 0.826,-1.505 1.905,-2.75 3.237,-3.736 1.332,-0.985 2.93,-1.478 4.795,-1.478 1.385,0 2.571,0.226 3.556,0.679 0.986,0.453 1.825,1.059 2.518,1.818 0.692,0.759 1.252,1.638 1.678,2.637 0.426,0.999 0.753,2.052 0.979,3.157 0.226,1.106 0.38,2.238 0.46,3.397 0.079,1.158 0.119,2.257 0.119,3.296 0,1.119 -0.386,2.065 -1.158,2.837 -0.773,0.773 -1.719,1.159 -2.837,1.159 -0.64,0 -1.206,-0.12 -1.699,-0.36 -0.493,-0.239 -0.912,-0.559 -1.258,-0.959 -0.347,-0.399 -0.606,-0.865 -0.78,-1.398 -0.173,-0.533 -0.259,-1.092 -0.259,-1.678 0,-0.24 -0.014,-0.72 -0.04,-1.439 -0.027,-0.719 -0.08,-1.458 -0.16,-2.218 -0.08,-0.759 -0.207,-1.438 -0.38,-2.037 -0.173,-0.6 -0.419,-0.9 -0.739,-0.9 z m 5.354,-3.276 c 0.187,0 0.347,-0.06 0.48,-0.18 0.133,-0.12 0.2,-0.286 0.2,-0.499 0,-0.16 -0.047,-0.307 -0.14,-0.44 -0.093,-0.133 -0.18,-0.266 -0.26,-0.4 -0.186,-0.266 -0.439,-0.532 -0.759,-0.799 -0.32,-0.266 -0.666,-0.513 -1.039,-0.739 -0.373,-0.226 -0.759,-0.413 -1.159,-0.559 -0.399,-0.147 -0.759,-0.22 -1.079,-0.22 -0.186,0 -0.346,0.06 -0.479,0.18 -0.133,0.12 -0.2,0.286 -0.2,0.499 0,0.373 0.2,0.6 0.599,0.679 0.666,0.134 1.279,0.387 1.839,0.76 0.559,0.373 1.025,0.839 1.398,1.398 0.133,0.213 0.333,0.32 0.599,0.32 z m -10.589,-9.51 c 0.187,0 0.347,-0.06 0.48,-0.18 0.133,-0.12 0.2,-0.286 0.2,-0.5 0,-0.133 -0.034,-0.266 -0.1,-0.399 -0.067,-0.133 -0.14,-0.267 -0.22,-0.4 -0.373,-0.506 -0.806,-0.952 -1.299,-1.338 -0.492,-0.387 -1.072,-0.58 -1.738,-0.58 -0.24,0 -0.453,0.047 -0.639,0.14 -0.187,0.093 -0.28,0.286 -0.28,0.58 0,0.293 0.093,0.479 0.28,0.559 0.186,0.08 0.399,0.12 0.639,0.12 0.4,0 0.726,0.106 0.979,0.319 0.253,0.214 0.473,0.44 0.66,0.68 0.186,0.24 0.359,0.466 0.519,0.679 0.16,0.213 0.333,0.32 0.519,0.32 z" id="path104"></path>
<path d="m 656.094,679.265 c 0.959,0 1.838,0.133 2.637,0.399 0.533,-0.239 1.106,-0.359 1.719,-0.359 0.559,0 1.085,0.106 1.578,0.319 0.493,0.214 0.919,0.5 1.279,0.86 0.359,0.359 0.639,0.779 0.839,1.258 0.2,0.48 0.3,0.999 0.3,1.559 0,0.319 -0.04,0.632 -0.12,0.939 -0.08,0.306 -0.147,0.606 -0.2,0.899 -0.107,0.612 -0.187,1.238 -0.24,1.878 -0.053,0.639 -0.08,1.265 -0.08,1.878 0,0.533 0.047,1.159 0.14,1.878 0.093,0.719 0.247,1.305 0.46,1.758 0.186,0.4 0.339,0.759 0.459,1.079 0.12,0.32 0.18,0.706 0.18,1.159 0,0.559 -0.107,1.079 -0.32,1.558 -0.213,0.48 -0.499,0.899 -0.859,1.259 -0.359,0.36 -0.779,0.646 -1.259,0.859 -0.479,0.213 -0.998,0.32 -1.558,0.32 -0.613,0 -1.159,-0.114 -1.638,-0.34 -0.48,-0.226 -0.933,-0.553 -1.359,-0.979 -0.639,0.32 -1.292,0.579 -1.958,0.779 -0.666,0.2 -1.372,0.3 -2.118,0.3 -1.172,0 -2.264,-0.22 -3.276,-0.659 -1.012,-0.44 -1.892,-1.039 -2.637,-1.799 -0.746,-0.759 -1.332,-1.651 -1.759,-2.677 -0.426,-1.025 -0.639,-2.124 -0.639,-3.296 0,-1.412 0.273,-2.764 0.819,-4.056 0.546,-1.292 1.292,-2.444 2.238,-3.457 0.946,-1.012 2.051,-1.818 3.316,-2.417 1.266,-0.599 2.618,-0.899 4.056,-0.899 z m 6.953,4.715 c 0.186,0 0.346,-0.06 0.48,-0.18 0.133,-0.12 0.199,-0.286 0.199,-0.499 0,-0.293 -0.066,-0.6 -0.199,-0.919 -0.32,-0.8 -0.746,-1.386 -1.279,-1.759 -0.533,-0.373 -1.239,-0.559 -2.118,-0.559 -0.186,0 -0.346,0.06 -0.479,0.18 -0.134,0.12 -0.2,0.286 -0.2,0.499 0,0.4 0.226,0.626 0.679,0.68 0.746,0.053 1.252,0.219 1.518,0.499 0.267,0.28 0.453,0.573 0.56,0.879 0.106,0.307 0.193,0.58 0.26,0.819 0.066,0.24 0.259,0.36 0.579,0.36 z m -8.032,5.834 c 0.187,-0.373 0.273,-0.766 0.26,-1.179 -0.013,-0.413 0.033,-0.832 0.14,-1.259 -0.506,0.214 -0.992,0.533 -1.459,0.959 -0.466,0.427 -0.699,0.893 -0.699,1.399 0,0.266 0.067,0.453 0.2,0.559 0.133,0.107 0.293,0.16 0.479,0.16 0.214,0 0.42,-0.06 0.62,-0.18 0.2,-0.119 0.353,-0.273 0.459,-0.459 z" id="path105"></path>
<path d="m 676.233,678.466 c 0.72,0 1.466,0.08 2.238,0.239 0.773,0.16 1.485,0.42 2.138,0.78 0.652,0.359 1.192,0.839 1.618,1.438 0.426,0.6 0.639,1.325 0.639,2.178 0,0.799 -0.226,1.538 -0.679,2.218 -0.453,0.679 -1.052,1.165 -1.798,1.458 0.773,0.693 1.412,1.492 1.918,2.398 0.506,0.905 0.759,1.904 0.759,2.996 0,0.773 -0.186,1.559 -0.559,2.358 -0.373,0.826 -0.886,1.525 -1.539,2.098 -0.652,0.573 -1.385,1.039 -2.197,1.398 -0.813,0.36 -1.659,0.62 -2.538,0.78 -0.879,0.159 -1.744,0.239 -2.597,0.239 -0.746,0 -1.545,-0.086 -2.397,-0.259 -0.853,-0.174 -1.645,-0.447 -2.378,-0.82 -0.733,-0.372 -1.345,-0.872 -1.838,-1.498 -0.493,-0.626 -0.739,-1.392 -0.739,-2.298 0,-0.506 0.093,-0.992 0.279,-1.458 0.187,-0.466 0.44,-0.879 0.76,-1.239 0.319,-0.359 0.699,-0.652 1.138,-0.879 0.44,-0.226 0.913,-0.366 1.419,-0.419 -0.719,-0.48 -1.265,-1.119 -1.638,-1.918 -0.373,-0.8 -0.56,-1.625 -0.56,-2.478 0,-1.092 0.253,-2.091 0.759,-2.997 0.507,-0.906 1.166,-1.678 1.978,-2.317 0.813,-0.64 1.732,-1.133 2.758,-1.479 1.025,-0.346 2.044,-0.519 3.056,-0.519 z m 5.315,5.274 c 0.186,0 0.346,-0.06 0.479,-0.18 0.134,-0.119 0.2,-0.286 0.2,-0.499 0,-0.559 -0.14,-1.066 -0.419,-1.519 -0.28,-0.452 -0.633,-0.839 -1.059,-1.158 -0.427,-0.32 -0.899,-0.573 -1.419,-0.76 -0.519,-0.186 -1.032,-0.279 -1.538,-0.279 -0.187,0 -0.347,0.06 -0.48,0.18 -0.133,0.119 -0.2,0.286 -0.2,0.499 0,0.4 0.214,0.626 0.64,0.679 0.772,0.107 1.452,0.32 2.038,0.64 0.586,0.319 0.945,0.905 1.079,1.758 0.053,0.426 0.279,0.639 0.679,0.639 z" id="path106"></path>
<path d="m 700.768,692.411 c 0.533,0.56 0.886,1.219 1.059,1.978 0.173,0.759 0.113,1.525 -0.18,2.298 -0.4,1.012 -1.052,1.705 -1.958,2.078 -0.906,0.373 -1.891,0.559 -2.957,0.559 -1.465,0 -2.923,-0.273 -4.375,-0.819 -1.452,-0.546 -2.757,-1.299 -3.916,-2.258 -1.159,-0.959 -2.105,-2.098 -2.837,-3.416 -0.733,-1.319 -1.139,-2.751 -1.219,-4.296 -0.027,-0.586 0.007,-1.185 0.1,-1.798 0.093,-0.613 0.246,-1.199 0.459,-1.758 0.373,-0.959 0.879,-1.812 1.519,-2.557 0.639,-0.746 1.365,-1.379 2.178,-1.898 0.812,-0.52 1.684,-0.919 2.617,-1.199 0.932,-0.28 1.891,-0.42 2.877,-0.42 1.092,0 2.151,0.173 3.177,0.52 1.025,0.346 1.944,0.839 2.757,1.478 0.812,0.639 1.491,1.412 2.038,2.318 0.546,0.905 0.899,1.918 1.058,3.037 0.107,0.612 0.134,1.212 0.08,1.798 -0.053,0.586 -0.199,1.185 -0.439,1.798 -0.426,1.065 -1.106,1.918 -2.038,2.557 z m -0.28,-7.672 c 0.187,0 0.347,-0.06 0.48,-0.18 0.133,-0.12 0.2,-0.286 0.2,-0.499 0,-0.346 -0.194,-0.746 -0.58,-1.199 -0.386,-0.453 -0.839,-0.879 -1.358,-1.279 -0.52,-0.399 -1.053,-0.739 -1.599,-1.018 -0.546,-0.28 -0.979,-0.42 -1.298,-0.42 -0.187,0 -0.347,0.06 -0.48,0.18 -0.133,0.12 -0.2,0.286 -0.2,0.499 0,0.373 0.2,0.6 0.6,0.68 0.293,0.053 0.619,0.179 0.979,0.379 0.359,0.2 0.712,0.433 1.059,0.699 0.346,0.267 0.652,0.547 0.919,0.84 0.266,0.293 0.466,0.586 0.599,0.879 0.133,0.293 0.36,0.439 0.679,0.439 z m -6.273,0.64 c -0.506,0.053 -0.886,0.179 -1.139,0.379 -0.253,0.2 -0.373,0.413 -0.36,0.639 0.014,0.227 0.14,0.42 0.38,0.58 0.24,0.16 0.586,0.226 1.039,0.2 0.533,-0.054 0.926,-0.18 1.179,-0.38 0.253,-0.2 0.379,-0.413 0.379,-0.639 0,-0.227 -0.126,-0.427 -0.379,-0.6 -0.253,-0.173 -0.62,-0.233 -1.099,-0.179 z" id="path107"></path>
<path d="m 715.593,679.864 c 0,-0.932 -0.02,-1.865 -0.06,-2.797 -0.04,-0.932 -0.167,-1.851 -0.38,-2.757 -0.106,-0.373 -0.2,-0.739 -0.28,-1.099 -0.08,-0.36 -0.12,-0.726 -0.12,-1.099 0,-0.692 0.134,-1.338 0.4,-1.938 0.266,-0.599 0.626,-1.125 1.079,-1.578 0.453,-0.453 0.979,-0.813 1.578,-1.079 0.6,-0.266 1.246,-0.4 1.938,-0.4 1.465,0 2.911,0.127 4.336,0.38 1.425,0.253 2.87,0.38 4.335,0.38 0.933,0 1.838,-0.12 2.718,-0.36 0.879,-0.24 1.784,-0.36 2.717,-0.36 0.692,0 1.338,0.134 1.938,0.4 0.599,0.266 1.125,0.626 1.578,1.079 0.453,0.453 0.813,0.979 1.079,1.578 0.266,0.6 0.4,1.246 0.4,1.938 0,1.306 -0.36,2.338 -1.079,3.097 -0.72,0.759 -1.605,1.332 -2.658,1.718 -1.052,0.386 -2.177,0.633 -3.376,0.739 -1.199,0.107 -2.278,0.16 -3.237,0.16 -0.985,0 -1.958,-0.04 -2.917,-0.12 v 1.439 c 0.187,0.027 0.36,0.047 0.52,0.06 0.16,0.013 0.333,0.02 0.519,0.02 0.586,0 1.152,-0.053 1.698,-0.16 0.547,-0.107 1.113,-0.16 1.699,-0.16 0.692,0 1.338,0.133 1.938,0.4 0.599,0.266 1.125,0.626 1.578,1.079 0.453,0.453 0.813,0.979 1.079,1.578 0.266,0.599 0.4,1.245 0.4,1.938 0,1.172 -0.267,2.104 -0.8,2.797 -0.532,0.693 -1.212,1.226 -2.038,1.598 -0.825,0.373 -1.738,0.62 -2.737,0.74 -0.999,0.12 -1.951,0.18 -2.857,0.18 -0.24,0 -0.486,-0.007 -0.739,-0.02 -0.253,-0.014 -0.499,-0.034 -0.739,-0.06 -0.08,0.959 -0.16,1.978 -0.24,3.056 -0.08,1.079 -0.293,2.078 -0.639,2.997 -0.347,0.919 -0.866,1.679 -1.559,2.278 -0.692,0.599 -1.691,0.899 -2.997,0.899 -0.692,0 -1.338,-0.133 -1.938,-0.4 -0.599,-0.266 -1.125,-0.626 -1.578,-1.078 -0.453,-0.453 -0.812,-0.979 -1.079,-1.579 -0.266,-0.599 -0.399,-1.245 -0.399,-1.938 0,-1.119 0.046,-2.244 0.139,-3.376 0.094,-1.132 0.2,-2.265 0.32,-3.397 0.12,-1.132 0.227,-2.264 0.32,-3.396 0.093,-1.132 0.14,-2.258 0.14,-3.377 z m 18.061,-10.309 c 0.852,0 1.498,0.226 1.938,0.679 0.439,0.453 0.806,1.039 1.099,1.758 0.133,0.32 0.346,0.48 0.639,0.48 0.187,0 0.346,-0.067 0.48,-0.2 0.133,-0.133 0.199,-0.293 0.199,-0.479 0,-0.134 -0.046,-0.32 -0.139,-0.56 -0.094,-0.24 -0.167,-0.426 -0.22,-0.559 -0.453,-0.799 -0.999,-1.412 -1.639,-1.838 -0.639,-0.427 -1.425,-0.64 -2.357,-0.64 -0.133,0 -0.306,0.014 -0.52,0.04 -0.213,0.027 -0.419,0.08 -0.619,0.16 -0.2,0.08 -0.366,0.18 -0.499,0.3 -0.134,0.12 -0.2,0.273 -0.2,0.459 0,0.187 0.066,0.347 0.2,0.48 0.133,0.133 0.293,0.2 0.479,0.2 0.213,0 0.406,-0.047 0.58,-0.14 0.173,-0.093 0.366,-0.14 0.579,-0.14 z m -3.956,11.908 c 0.639,0 1.205,0.206 1.698,0.619 0.493,0.413 0.833,0.926 1.019,1.538 0.107,0.347 0.333,0.52 0.679,0.52 0.187,0 0.347,-0.067 0.48,-0.2 0.133,-0.133 0.2,-0.293 0.2,-0.479 0,-0.187 -0.034,-0.36 -0.1,-0.52 -0.067,-0.16 -0.14,-0.32 -0.22,-0.479 -0.373,-0.746 -0.912,-1.332 -1.618,-1.759 -0.706,-0.426 -1.472,-0.639 -2.298,-0.639 -0.266,0 -0.566,0.033 -0.899,0.1 -0.333,0.067 -0.499,0.286 -0.499,0.659 0,0.187 0.066,0.347 0.199,0.48 0.134,0.133 0.293,0.2 0.48,0.2 0.133,0 0.28,-0.007 0.439,-0.02 0.16,-0.014 0.307,-0.02 0.44,-0.02 z" id="path108"></path>
<path d="m 750.197,666.918 c 0.932,0 1.964,0.126 3.097,0.379 1.132,0.253 2.184,0.64 3.156,1.159 0.973,0.52 1.792,1.185 2.458,1.998 0.666,0.812 0.999,1.778 0.999,2.897 0,0.693 -0.133,1.339 -0.4,1.938 -0.266,0.599 -0.626,1.125 -1.079,1.578 -0.453,0.453 -0.979,0.813 -1.578,1.079 -0.599,0.267 -1.245,0.4 -1.938,0.4 -0.506,0 -0.966,-0.073 -1.379,-0.22 -0.413,-0.146 -0.799,-0.313 -1.158,-0.499 -0.36,-0.187 -0.706,-0.353 -1.039,-0.5 -0.333,-0.146 -0.686,-0.22 -1.059,-0.22 -0.213,0 -0.393,0.047 -0.54,0.14 -0.146,0.093 -0.206,0.26 -0.18,0.5 0.746,0.239 1.499,0.399 2.258,0.479 0.759,0.08 1.525,0.2 2.298,0.36 1.172,0.24 2.251,0.592 3.236,1.059 0.986,0.466 1.838,1.059 2.558,1.778 0.719,0.719 1.285,1.565 1.698,2.537 0.413,0.973 0.619,2.098 0.619,3.377 0,1.864 -0.339,3.503 -1.019,4.915 -0.679,1.411 -1.605,2.597 -2.777,3.556 -1.172,0.959 -2.53,1.678 -4.076,2.158 -1.545,0.479 -3.183,0.719 -4.914,0.719 -0.986,0 -2.085,-0.127 -3.297,-0.38 -1.212,-0.253 -2.351,-0.652 -3.416,-1.198 -1.066,-0.547 -1.965,-1.252 -2.698,-2.118 -0.732,-0.866 -1.099,-1.898 -1.099,-3.097 0,-0.693 0.134,-1.339 0.4,-1.938 0.266,-0.599 0.626,-1.126 1.079,-1.578 0.453,-0.453 0.979,-0.813 1.578,-1.079 0.6,-0.267 1.246,-0.4 1.938,-0.4 0.56,0 1.059,0.093 1.499,0.28 0.439,0.186 0.872,0.393 1.298,0.619 0.427,0.227 0.859,0.433 1.299,0.62 0.44,0.186 0.952,0.279 1.538,0.279 0.373,0 0.746,-0.026 1.119,-0.08 0.373,-0.053 0.733,-0.159 1.079,-0.319 -0.799,-0.16 -1.605,-0.293 -2.417,-0.4 -0.813,-0.106 -1.619,-0.266 -2.418,-0.479 -2.344,-0.64 -4.162,-1.752 -5.454,-3.337 -1.292,-1.585 -1.938,-3.603 -1.938,-6.054 0,-1.518 0.266,-2.937 0.799,-4.255 0.533,-1.319 1.279,-2.471 2.238,-3.457 0.959,-0.985 2.091,-1.765 3.396,-2.337 1.305,-0.573 2.717,-0.859 4.236,-0.859 z m 8.191,7.312 c 0.187,0 0.347,-0.067 0.48,-0.2 0.133,-0.133 0.2,-0.293 0.2,-0.479 0,-0.613 -0.087,-1.152 -0.26,-1.619 -0.173,-0.466 -0.406,-0.865 -0.699,-1.198 -0.293,-0.333 -0.62,-0.626 -0.979,-0.879 -0.36,-0.253 -0.74,-0.487 -1.139,-0.7 -0.267,-0.133 -0.606,-0.219 -1.019,-0.259 -0.413,-0.04 -0.673,0.126 -0.779,0.499 -0.08,0.346 0.053,0.613 0.399,0.799 0.4,0.187 0.773,0.353 1.119,0.5 0.346,0.146 0.653,0.326 0.919,0.539 0.267,0.213 0.493,0.5 0.679,0.859 0.187,0.36 0.32,0.859 0.4,1.499 0.053,0.426 0.28,0.639 0.679,0.639 z m 2.358,10.15 c -0.16,-1.013 -0.786,-1.945 -1.878,-2.798 -0.426,-0.293 -0.779,-0.432 -1.059,-0.419 -0.28,0.013 -0.48,0.1 -0.599,0.26 -0.12,0.159 -0.16,0.346 -0.12,0.559 0.04,0.213 0.166,0.373 0.379,0.48 1.066,0.559 1.732,1.252 1.998,2.077 0.08,0.267 0.2,0.447 0.36,0.54 0.16,0.093 0.313,0.12 0.459,0.08 0.147,-0.04 0.267,-0.133 0.36,-0.28 0.093,-0.146 0.126,-0.313 0.1,-0.499 z" id="path109"></path>
<path d="m 773.812,689.055 c 0.027,0.373 0.094,0.739 0.2,1.099 0.107,0.359 0.22,0.719 0.34,1.078 0.12,0.36 0.226,0.726 0.319,1.099 0.094,0.373 0.14,0.746 0.14,1.119 0,0.693 -0.133,1.339 -0.399,1.938 -0.267,0.6 -0.626,1.126 -1.079,1.579 -0.453,0.452 -0.979,0.812 -1.579,1.078 -0.599,0.267 -1.245,0.4 -1.938,0.4 -1.065,0 -1.964,-0.26 -2.697,-0.779 -0.732,-0.52 -1.332,-1.206 -1.798,-2.058 -0.466,-0.853 -0.819,-1.818 -1.059,-2.897 -0.24,-1.079 -0.406,-2.171 -0.499,-3.277 -0.094,-1.105 -0.147,-2.171 -0.16,-3.196 -0.013,-1.026 -0.02,-1.912 -0.02,-2.658 0,-0.719 0.007,-1.718 0.02,-2.997 0.013,-1.278 0.053,-2.603 0.12,-3.975 0.066,-1.372 0.166,-2.664 0.299,-3.876 0.134,-1.212 0.333,-2.098 0.6,-2.658 0.426,-0.905 1.039,-1.625 1.838,-2.157 0.799,-0.533 1.705,-0.8 2.717,-0.8 0.879,0 1.605,0.147 2.178,0.44 0.573,0.293 1.059,0.686 1.458,1.179 0.4,0.493 0.726,1.059 0.979,1.698 0.253,0.639 0.487,1.305 0.7,1.998 0.159,0.586 0.379,1.245 0.659,1.978 0.28,0.732 0.593,1.465 0.939,2.198 0.346,0.732 0.726,1.418 1.139,2.057 0.413,0.64 0.846,1.159 1.298,1.559 0.56,-0.32 1.119,-0.799 1.679,-1.439 0.559,-0.639 1.079,-1.332 1.558,-2.077 0.48,-0.746 0.912,-1.506 1.299,-2.278 0.386,-0.773 0.712,-1.452 0.979,-2.038 0.293,-0.666 0.579,-1.319 0.859,-1.958 0.28,-0.639 0.619,-1.205 1.019,-1.698 0.399,-0.493 0.892,-0.886 1.478,-1.179 0.586,-0.293 1.319,-0.44 2.198,-0.44 1.066,0 1.931,0.214 2.597,0.64 0.666,0.426 1.186,0.985 1.559,1.678 0.373,0.693 0.626,1.465 0.759,2.318 0.133,0.852 0.2,1.705 0.2,2.557 0,1.891 -0.1,3.763 -0.3,5.614 -0.2,1.852 -0.433,3.71 -0.699,5.574 -0.133,1.013 -0.28,2.025 -0.44,3.037 -0.16,1.013 -0.24,2.025 -0.24,3.037 0,0.293 0.02,0.58 0.06,0.859 0.04,0.28 0.06,0.566 0.06,0.859 0,0.693 -0.133,1.339 -0.399,1.938 -0.267,0.6 -0.626,1.126 -1.079,1.579 -0.453,0.453 -0.979,0.812 -1.579,1.079 -0.599,0.266 -1.245,0.399 -1.938,0.399 -0.905,0 -1.684,-0.18 -2.337,-0.539 -0.653,-0.36 -1.186,-0.833 -1.598,-1.419 -0.413,-0.586 -0.713,-1.259 -0.9,-2.018 -0.186,-0.759 -0.279,-1.538 -0.279,-2.337 0,-0.48 0.013,-0.959 0.04,-1.439 0.026,-0.479 0.066,-0.959 0.12,-1.438 -0.746,0.399 -1.532,0.699 -2.358,0.899 -0.826,0.2 -1.665,0.299 -2.517,0.299 -0.773,0 -1.545,-0.113 -2.318,-0.339 -0.772,-0.227 -1.505,-0.526 -2.198,-0.899 z m -4.755,-19.98 c 0.613,0 1.106,0.134 1.479,0.4 0.373,0.266 0.686,0.613 0.939,1.039 0.253,0.426 0.466,0.879 0.639,1.359 0.173,0.479 0.353,0.945 0.54,1.398 0.133,0.293 0.346,0.44 0.639,0.44 0.186,0 0.346,-0.067 0.479,-0.2 0.134,-0.133 0.2,-0.293 0.2,-0.48 0,-0.16 -0.06,-0.399 -0.18,-0.719 -0.12,-0.32 -0.206,-0.559 -0.259,-0.719 -0.293,-0.746 -0.66,-1.459 -1.099,-2.138 -0.44,-0.679 -1.059,-1.165 -1.858,-1.458 -0.24,-0.08 -0.48,-0.147 -0.72,-0.2 -0.239,-0.054 -0.492,-0.08 -0.759,-0.08 -0.16,0 -0.339,0.006 -0.539,0.02 -0.2,0.013 -0.4,0.053 -0.6,0.12 -0.199,0.066 -0.366,0.153 -0.499,0.259 -0.133,0.107 -0.2,0.267 -0.2,0.48 0,0.186 0.067,0.346 0.2,0.479 0.133,0.134 0.293,0.2 0.479,0.2 0.187,0 0.367,-0.033 0.54,-0.1 0.173,-0.066 0.366,-0.1 0.579,-0.1 z m 20.619,0.04 c 0.453,0 0.846,0.087 1.179,0.26 0.333,0.173 0.606,0.406 0.819,0.699 0.213,0.293 0.386,0.62 0.519,0.979 0.133,0.36 0.24,0.74 0.32,1.139 0.053,0.187 0.08,0.366 0.08,0.54 0,0.173 0.027,0.353 0.08,0.539 0.08,0.4 0.306,0.599 0.679,0.599 0.187,0 0.346,-0.066 0.48,-0.199 0.133,-0.134 0.199,-0.293 0.199,-0.48 0,-0.426 -0.066,-0.906 -0.199,-1.438 -0.267,-1.093 -0.713,-2.032 -1.339,-2.817 -0.626,-0.786 -1.565,-1.179 -2.817,-1.179 -0.16,0 -0.373,0.013 -0.639,0.04 -0.267,0.026 -0.533,0.08 -0.8,0.16 -0.266,0.079 -0.492,0.186 -0.679,0.319 -0.186,0.133 -0.28,0.307 -0.28,0.52 0,0.186 0.067,0.346 0.2,0.479 0.133,0.133 0.293,0.2 0.48,0.2 0.293,0 0.579,-0.06 0.859,-0.18 0.279,-0.12 0.566,-0.18 0.859,-0.18 z" id="path110"></path>
<path d="m 797.228,679.864 c 0,-0.985 -0.033,-1.978 -0.1,-2.977 -0.066,-0.999 -0.206,-1.978 -0.419,-2.937 -0.08,-0.293 -0.154,-0.592 -0.22,-0.899 -0.067,-0.306 -0.1,-0.619 -0.1,-0.939 0,-0.692 0.133,-1.338 0.4,-1.938 0.266,-0.599 0.626,-1.125 1.078,-1.578 0.453,-0.453 0.979,-0.813 1.579,-1.079 0.599,-0.266 1.245,-0.4 1.938,-0.4 0.985,0 1.818,0.22 2.497,0.66 0.679,0.439 1.232,1.012 1.658,1.718 0.427,0.706 0.753,1.518 0.979,2.437 0.227,0.919 0.393,1.852 0.5,2.798 0.106,0.945 0.166,1.864 0.18,2.757 0.013,0.892 0.02,1.685 0.02,2.377 0,0.426 -0.014,1.072 -0.04,1.938 -0.027,0.866 -0.073,1.845 -0.14,2.937 -0.067,1.092 -0.147,2.225 -0.24,3.397 -0.093,1.172 -0.193,2.271 -0.3,3.296 -0.106,1.026 -0.219,1.932 -0.339,2.717 -0.12,0.786 -0.26,1.312 -0.42,1.579 -0.426,0.826 -1.039,1.478 -1.838,1.958 -0.799,0.479 -1.665,0.719 -2.597,0.719 -0.693,0 -1.339,-0.133 -1.938,-0.4 -0.6,-0.266 -1.126,-0.626 -1.579,-1.078 -0.452,-0.453 -0.812,-0.979 -1.078,-1.579 -0.267,-0.599 -0.4,-1.245 -0.4,-1.938 0,-1.119 0.047,-2.237 0.14,-3.356 0.093,-1.119 0.2,-2.245 0.32,-3.377 0.119,-1.132 0.226,-2.264 0.319,-3.396 0.093,-1.132 0.14,-2.271 0.14,-3.417 z m 8.272,-4.515 c 0.186,0 0.346,-0.067 0.479,-0.2 0.133,-0.133 0.2,-0.293 0.2,-0.479 0,-0.72 -0.1,-1.479 -0.3,-2.278 -0.2,-0.799 -0.506,-1.538 -0.919,-2.218 -0.413,-0.679 -0.926,-1.238 -1.538,-1.678 -0.613,-0.44 -1.346,-0.659 -2.198,-0.659 -0.187,0 -0.346,0.066 -0.48,0.199 -0.133,0.134 -0.199,0.294 -0.199,0.48 0,0.213 0.06,0.366 0.179,0.46 0.12,0.093 0.267,0.166 0.44,0.219 0.173,0.054 0.353,0.087 0.539,0.1 0.187,0.013 0.347,0.047 0.48,0.1 0.772,0.293 1.312,0.766 1.618,1.419 0.307,0.652 0.526,1.318 0.66,1.998 0.133,0.679 0.253,1.272 0.359,1.778 0.107,0.506 0.333,0.759 0.68,0.759 z" id="path111"></path>
</g><g fill="#000000" opacity="1" stroke="none" id="g113" style="clip-rule:evenodd;fill-rule:nonzero;stroke-linecap:round;stroke-linejoin:round;display:inline;opacity:1" transform="translate(-57.998888,127.969)">
<path d="m 674.853,535.963 c 0.233,5.352 1.28,16.056 3.142,32.112 1.629,13.729 2.443,24.084 2.443,31.064 0,15.358 -2.967,27.691 -8.9,36.999 -5.934,9.308 -17.045,13.962 -33.334,13.962 -10.704,0 -19.197,-1.164 -25.48,-3.491 -6.283,-2.327 -10.937,-6.864 -13.962,-13.613 -2.792,-6.515 -4.188,-13.729 -4.188,-21.64 0,-4.421 0.407,-9.366 1.221,-14.834 0.815,-5.469 1.106,-8.436 0.873,-8.901 -0.233,-0.465 -1.28,-0.698 -3.141,-0.698 -1.164,0 -5.003,0.465 -11.519,1.396 -11.867,1.629 -21.408,2.443 -28.621,2.443 -9.075,0 -16.754,-1.047 -23.037,-3.141 -8.377,-2.792 -14.369,-7.446 -17.976,-13.962 -3.606,-6.515 -5.41,-13.961 -5.41,-22.338 0,-9.308 1.629,-17.802 4.887,-25.48 4.188,-10.006 12.1,-25.364 23.735,-46.074 3.49,-6.05 6.224,-12.449 8.202,-19.197 1.978,-6.748 3.898,-14.427 5.759,-23.037 2.327,-10.006 4.48,-17.801 6.458,-23.386 1.978,-5.585 5.119,-10.297 9.424,-14.136 4.305,-3.84 10.18,-5.876 17.626,-6.108 16.056,-0.698 27.749,2.036 35.079,8.202 7.33,6.167 10.995,13.555 10.995,22.164 0,2.327 -0.465,5.12 -1.396,8.377 -1.629,5.12 -4.887,12.915 -9.773,23.386 4.886,-2.327 13.031,-3.49 24.433,-3.49 9.54,0 17.51,2.443 23.909,7.33 6.399,4.886 9.599,10.471 9.599,16.754 0,3.955 -0.349,12.565 -1.048,25.829 -0.465,7.446 -0.698,13.147 -0.698,17.103 0,2.094 0.233,7.562 0.698,16.405 z M 564.556,445.212 c 0.233,-1.164 0.349,-2.792 0.349,-4.887 0,-3.49 -0.582,-5.235 -1.745,-5.235 -0.931,0 -1.862,0.989 -2.792,2.966 -0.931,1.978 -1.513,4.596 -1.746,7.854 -2.094,16.521 -8.958,33.275 -20.593,50.262 -2.792,3.956 -4.189,7.214 -4.189,9.773 0,1.629 0.699,2.443 2.095,2.443 1.163,0 2.443,-0.581 3.839,-1.745 1.396,-1.163 2.676,-2.792 3.84,-4.886 4.654,-8.61 9.017,-18.092 13.089,-28.447 4.072,-10.355 6.69,-19.721 7.853,-28.098 z m 26.178,85.864 c 3.491,0.466 5.992,-0.058 7.505,-1.571 1.512,-1.512 2.501,-4.246 2.967,-8.202 0.465,-3.956 0.698,-10.471 0.698,-19.546 0,-6.748 0.116,-11.519 0.349,-14.311 -5.585,10.937 -9.657,19.197 -12.217,24.782 -2.559,5.585 -3.839,10.006 -3.839,13.264 0,3.49 1.512,5.351 4.537,5.584 z m 56.196,107.505 c 7.912,-1.163 14.427,-4.596 19.546,-10.297 5.12,-5.701 7.214,-16.346 6.283,-31.937 -0.233,-1.862 -0.523,-3.316 -0.872,-4.363 -0.349,-1.047 -0.757,-1.571 -1.222,-1.571 -1.164,0 -1.629,2.211 -1.396,6.632 0.931,12.566 -0.582,20.943 -4.538,25.131 -3.956,4.189 -9.657,6.865 -17.103,8.028 -3.956,0.698 -5.934,2.327 -5.934,4.887 0,1.163 0.524,2.094 1.571,2.792 1.047,0.698 2.269,0.931 3.665,0.698 z" id="path112"></path>
<path d="m 710.107,515.02 c -7.447,-2.792 -13.089,-7.388 -16.929,-13.787 -3.839,-6.399 -5.759,-13.787 -5.759,-22.164 0,-12.1 3.258,-24.084 9.773,-35.951 6.516,-11.635 15.765,-20.885 27.749,-27.749 11.984,-6.865 26.353,-10.297 43.107,-10.297 14.194,0 26.411,3.025 36.649,9.075 10.239,6.05 17.976,14.194 23.211,24.433 5.236,10.239 7.854,21.524 7.854,33.857 0,11.402 -2.269,22.979 -6.807,34.73 -4.537,11.751 -11.111,22.629 -19.72,32.635 l -4.538,5.236 c -0.931,1.163 -2.676,3.258 -5.236,6.283 -2.559,3.025 -4.304,5.177 -5.235,6.457 -0.931,1.28 -1.396,2.269 -1.396,2.967 0,0.698 0.814,1.047 2.443,1.047 2.327,0 6.166,-0.349 11.518,-1.047 1.396,-0.233 3.607,-0.349 6.632,-0.349 l 21.99,0.349 c 10.006,0 15.009,8.609 15.009,25.829 0,5.585 -0.582,12.1 -1.746,19.546 -1.629,9.308 -3.839,17.22 -6.631,23.735 -2.793,6.516 -7.214,11.286 -13.264,14.311 -10.006,4.886 -28.389,7.33 -55.149,7.33 -7.213,0 -18.964,-0.233 -35.253,-0.698 -13.729,-0.466 -23.735,-3.607 -30.018,-9.425 -6.282,-5.817 -9.424,-14.427 -9.424,-25.829 0,-1.861 0.233,-4.886 0.698,-9.075 0.931,-9.308 3.549,-18.848 7.854,-28.621 4.305,-9.773 13.089,-22.455 26.353,-38.046 12.332,-14.427 22.222,-27.341 29.668,-38.743 7.446,-11.402 11.169,-19.663 11.169,-24.782 0,-2.095 -0.698,-3.607 -2.094,-4.538 -3.956,-3.025 -8.959,2.792 -15.009,17.452 -3.723,9.308 -8.726,16.289 -15.008,20.943 -6.283,4.654 -13.031,6.981 -20.245,6.981 -4.188,0 -8.261,-0.699 -12.216,-2.095 z m -9.773,-40.14 c 0.232,3.025 1.512,4.538 3.839,4.538 1.163,0 2.152,-0.582 2.967,-1.745 0.814,-1.164 1.105,-2.909 0.872,-5.236 -0.232,-1.861 -0.349,-4.305 -0.349,-7.33 0,-8.842 1.687,-16.114 5.062,-21.815 3.374,-5.701 8.551,-10.529 15.532,-14.485 5.817,-3.491 8.726,-5.934 8.726,-7.33 0,-0.465 -0.349,-0.698 -1.047,-0.698 -1.396,0 -3.607,0.814 -6.632,2.443 -10.239,5.818 -17.685,12.042 -22.339,18.674 -4.654,6.632 -6.981,14.834 -6.981,24.607 0,3.724 0.117,6.516 0.35,8.377 z m 142.06,117.628 c 0.232,-1.862 0.349,-4.305 0.349,-7.33 0,-7.679 -1.687,-12.74 -5.061,-15.184 -3.375,-2.443 -9.483,-3.316 -18.325,-2.617 -1.862,0.232 -3.491,0.872 -4.887,1.919 -1.396,1.047 -2.094,2.036 -2.094,2.967 0,1.862 1.629,2.443 4.887,1.745 7.213,-1.629 11.867,-2.443 13.961,-2.443 2.327,0 3.956,0.465 4.887,1.396 0.931,0.931 1.396,2.444 1.396,4.538 0,2.094 -0.814,6.981 -2.443,14.66 -0.233,0.698 -0.349,1.628 -0.349,2.792 0,1.396 0.291,2.443 0.872,3.141 0.582,0.698 1.222,1.047 1.92,1.047 2.56,0 4.189,-2.21 4.887,-6.631 z" id="path113"></path>
</g><g id="g4"><path style="font-size:40px;font-family:'Choret Fudyng Bubble';-inkscape-font-specification:'Choret Fudyng Bubble, Normal';text-align:center;text-anchor:middle;stroke-width:0.5;stroke-dashoffset:4" d="m 644.28007,727.78099 q -1.28,-0.48 -1.96,-1.56 -0.64,-1.12 -0.64,-2.56 0,-2.08 1.12,-4.12 1.12,-2 3.16,-3.16 2.08,-1.2 4.96,-1.2 2.44,0 4.2,1.04 1.76,1.04 2.64,2.8 0.92,1.76 0.92,3.88 0,1.96 -0.8,4 -0.76,2 -2.24,3.72 l -0.52,0.6 q -0.16,0.2 -0.6,0.72 -0.44,0.52 -0.6,0.76 -0.16,0.2 -0.16,0.32 0,0.12 0.28,0.12 0.4,0 1.32,-0.12 0.24,-0.04 0.76,-0.04 l 2.52,0.04 q 1.72,0 1.72,2.96 0,0.96 -0.2,2.24 -0.28,1.6 -0.76,2.72 -0.48,1.12 -1.52,1.64 -1.72,0.84 -6.32,0.84 -1.24,0 -4.04,-0.08 -2.36,-0.08 -3.44,-1.08 -1.08,-1 -1.08,-2.96 0,-0.32 0.08,-1.04 0.16,-1.6 0.88,-3.28 0.76,-1.68 3.04,-4.36 2.12,-2.48 3.4,-4.44 1.28,-1.96 1.28,-2.84 0,-0.36 -0.24,-0.52 -0.68,-0.52 -1.72,2 -0.64,1.6 -1.72,2.4 -1.08,0.8 -2.32,0.8 -0.72,0 -1.4,-0.24 z m -1.12,-4.6 q 0.04,0.52 0.44,0.52 0.2,0 0.32,-0.2 0.16,-0.2 0.12,-0.6 -0.04,-0.32 -0.04,-0.84 0,-1.52 0.56,-2.48 0.6,-1 1.8,-1.68 1,-0.6 1,-0.84 0,-0.08 -0.12,-0.08 -0.24,0 -0.76,0.28 -1.76,1 -2.56,2.16 -0.8,1.12 -0.8,2.8 0,0.64 0.04,0.96 z m 16.28,13.48 q 0.04,-0.32 0.04,-0.84 0,-1.32 -0.6,-1.72 -0.56,-0.44 -2.08,-0.32 -0.32,0.04 -0.56,0.24 -0.24,0.16 -0.24,0.32 0,0.32 0.56,0.2 1.24,-0.28 1.6,-0.28 0.4,0 0.56,0.16 0.16,0.16 0.16,0.52 0,0.36 -0.28,1.68 -0.04,0.12 -0.04,0.32 0,0.24 0.08,0.36 0.12,0.12 0.24,0.12 0.44,0 0.56,-0.76 z m 12.71999,6.88 q -3.24,0 -5.64,-1.68 -2.4,-1.72 -3.68,-4.68 -1.28,-2.96 -1.28,-6.68 0,-3.88 1.28,-7.44 1.28,-3.56 3.68,-5.76 2.44,-2.24 5.72,-2.24 3.2,0 5.52,2 2.32,1.96 3.52,5.2 1.2,3.24 1.2,6.92 0,6.96 -2.68,10.68 -2.68,3.68 -7.64,3.68 z m 2.92,-26.84 q -1.12,-0.76 -2.56,-0.76 -0.96,0 -1.92,0.36 -0.92,0.36 -1.72,1.08 -0.4,0.36 -0.4,0.64 0,0.2 0.12,0.32 0.16,0.12 0.36,0.12 0.28,0 0.6,-0.32 1.4,-1.84 2.52,-1.84 0.52,0 1.04,0.28 0.56,0.24 1.48,0.84 0.44,0.28 0.8,0.28 0.36,0 0.36,-0.24 0,-0.32 -0.68,-0.76 z m -2.88,16.32 q 0.52,0 0.76,-1.4 0.24,-1.44 0.24,-3.6 0,-2.56 -0.32,-4.68 -0.32,-2.16 -0.76,-2.12 -0.44,0 -0.72,1.76 -0.28,1.72 -0.28,4.08 0,2.4 0.28,4.2 0.28,1.76 0.8,1.76 z m 2.6,-1.16 q 0,-0.64 -0.2,-0.64 -0.12,0 -0.28,0.28 -0.16,0.24 -0.2,0.64 -0.32,2.68 -1.48,2.68 -0.56,0 -1.32,-0.68 -0.36,-0.36 -0.76,-0.36 -0.28,0 -0.28,0.24 0,0.28 0.4,0.64 0.64,0.64 1.56,0.64 0.96,0 1.68,-0.8 0.72,-0.8 0.88,-2.32 z m 11.47998,-4.08 q -1.28,-0.48 -1.96,-1.56 -0.64,-1.12 -0.64,-2.56 0,-2.08 1.12,-4.12 1.12,-2 3.16,-3.16 2.08,-1.2 4.96,-1.2 2.44,0 4.2,1.04 1.76,1.04 2.64,2.8 0.92,1.76 0.92,3.88 0,1.96 -0.8,4 -0.76,2 -2.24,3.72 l -0.52,0.6 q -0.16,0.2 -0.6,0.72 -0.44,0.52 -0.6,0.76 -0.16,0.2 -0.16,0.32 0,0.12 0.28,0.12 0.4,0 1.32,-0.12 0.24,-0.04 0.76,-0.04 l 2.52,0.04 q 1.72,0 1.72,2.96 0,0.96 -0.2,2.24 -0.28,1.6 -0.76,2.72 -0.48,1.12 -1.52,1.64 -1.72,0.84 -6.32,0.84 -1.24,0 -4.04,-0.08 -2.36,-0.08 -3.44,-1.08 -1.08,-1 -1.08,-2.96 0,-0.32 0.08,-1.04 0.16,-1.6 0.88,-3.28 0.76,-1.68 3.04,-4.36 2.12,-2.48 3.4,-4.44 1.28,-1.96 1.28,-2.84 0,-0.36 -0.24,-0.52 -0.68,-0.52 -1.72,2 -0.64,1.6 -1.72,2.4 -1.08,0.8 -2.32,0.8 -0.72,0 -1.4,-0.24 z m -1.12,-4.6 q 0.04,0.52 0.44,0.52 0.2,0 0.32,-0.2 0.16,-0.2 0.12,-0.6 -0.04,-0.32 -0.04,-0.84 0,-1.52 0.56,-2.48 0.6,-1 1.8,-1.68 1,-0.6 1,-0.84 0,-0.08 -0.12,-0.08 -0.24,0 -0.76,0.28 -1.76,1 -2.56,2.16 -0.8,1.12 -0.8,2.8 0,0.64 0.04,0.96 z m 16.28,13.48 q 0.04,-0.32 0.04,-0.84 0,-1.32 -0.6,-1.72 -0.56,-0.44 -2.08,-0.32 -0.32,0.04 -0.56,0.24 -0.24,0.16 -0.24,0.32 0,0.32 0.56,0.2 1.24,-0.28 1.6,-0.28 0.4,0 0.56,0.16 0.16,0.16 0.16,0.52 0,0.36 -0.28,1.68 -0.04,0.12 -0.04,0.32 0,0.24 0.08,0.36 0.12,0.12 0.24,0.12 0.44,0 0.56,-0.76 z m 10.31999,6.72 q -2.56,0 -4.44,-1.04 -1.84,-1.08 -2.8,-2.8 -0.96,-1.72 -0.96,-3.6 0,-2.64 1.28,-4.12 1.32,-1.48 3.28,-1.48 1.4,0 2.4,0.48 1,0.48 1.92,1.24 0.72,0.6 1.04,0.6 0.44,0 0.44,-0.52 0,-0.52 -0.52,-1.28 -0.52,-0.8 -1.4,-1.36 -0.88,-0.56 -1.92,-0.56 -0.52,0 -1.12,0.08 -0.56,0.08 -0.96,0.16 -0.4,0.12 -0.92,0.12 -0.92,0 -1.64,-0.56 -0.72,-0.6 -0.96,-1.8 -0.28,-1.12 -0.28,-2.8 0,-1.88 0.44,-5.24 0.28,-1.76 1,-2.52 0.72,-0.8 1.8,-0.96 1.12,-0.2 3.4,-0.2 l 5.56,0.04 q 1.36,0 1.92,0.72 0.6,0.68 0.6,1.6 v 1.2 q 0,1.88 -0.24,3.04 -0.2,1.16 -0.88,1.16 -0.6,0 -1.12,-0.12 -0.48,-0.16 -1.32,-0.48 -1.44,-0.56 -2.32,-0.76 -0.24,-0.04 -0.72,-0.16 -0.48,-0.12 -0.76,-0.12 -0.48,0 -0.6,0.28 -0.12,0.16 -0.32,0.92 -0.2,0.76 -0.16,1 0.04,0.32 0.32,0.32 0.2,0 0.92,-0.16 0.72,-0.16 1.92,-0.16 2.6,0 4.28,1.52 1.68,1.52 2.4,3.8 0.76,2.28 0.76,4.64 0,0.92 -0.12,1.72 -0.52,3.52 -2.84,5.84 -2.32,2.32 -6.36,2.32 z m -6.24,-23.12 q 0,0.32 0.12,0.52 0.16,0.16 0.32,0.16 0.2,0 0.36,-0.2 0.16,-0.24 0.12,-0.64 -0.04,-0.48 -0.04,-1.28 0,-1.32 0.32,-1.76 0.36,-0.44 1.36,-0.44 0.24,0 1.28,0.08 h 0.12 q 0.32,0 0.48,-0.12 0.2,-0.12 0.2,-0.24 0,-0.36 -0.76,-0.36 -1.56,0 -2.36,0.36 -0.76,0.32 -1.12,1.2 -0.32,0.88 -0.4,2.68 z m 9.28,21.12 q 1.88,-0.32 3.24,-2.12 1.36,-1.8 1.36,-4.32 0,-0.52 -0.24,-0.52 -0.24,0 -0.32,0.48 -0.2,2.44 -1.2,3.68 -1,1.2 -2.88,1.76 -0.4,0.12 -0.64,0.32 -0.2,0.16 -0.2,0.36 0,0.2 0.24,0.32 0.28,0.08 0.64,0.04 z" id="text1" transform="translate(-57.998888,127.969)" aria-label="2025"></path><text xml:space="preserve" style="font-size:349.333px;font-family:'Choret Fudyng Bubble';-inkscape-font-specification:'Choret Fudyng Bubble, Normal';text-align:center;writing-mode:lr-tb;direction:ltr;text-anchor:middle;clip-rule:evenodd;display:none;fill:#000000;fill-rule:nonzero;stroke:none;stroke-width:0.5;stroke-linecap:round;stroke-linejoin:round;stroke-dashoffset:4" x="623.38116" y="871.22998" id="text1-9"><tspan id="tspan1-4" x="623.38116" y="871.22998" style="font-style:normal;font-variant:normal;font-weight:normal;font-stretch:normal;font-size:40px;font-family:'Choret Fudyng Bubble';-inkscape-font-specification:'Choret Fudyng Bubble, Normal';font-variant-ligatures:normal;font-variant-caps:normal;font-variant-numeric:normal;font-variant-east-asian:normal;stroke:none">2025</tspan></text></g></g></svg>
