<?xml version="1.0" encoding="UTF-8"?>
<svg id="Ebene_2" xmlns="http://www.w3.org/2000/svg" version="1.1" viewBox="0 0 120 59">
  <!-- Generator: Adobe Illustrator 29.6.0, SVG Export Plug-In . SVG Version: 2.1.1 Build 207)  -->
  <defs>
    <style>
      .st0 {
        fill: #004b92;
      }

      .st1 {
        fill: #666;
      }

      .st2 {
        fill: #0298d3;
      }

      .st3 {
        fill: #004b93;
      }

      .st4 {
        fill: #4fd1f4;
      }
    </style>
  </defs>
  <g>
    <path class="st4" d="M27.6,35.5c-1.1-1.2-2-1.6-3.7-2-2.5-.5-5.1-.4-7.7-.4v-6.2c2.6,0,5.4.2,7.9-.6s3.6-2.5,3.4-5.2-1.8-3.2-3.8-3.5c-3.4-.5-6.9.8-9.6,2.7l-3.7-5.7c2.8-1.9,6-3.1,9.3-3.5,5.8-.7,14.6.5,15.7,7.5s-1.2,7.6-4.6,9.5-2.1.9-3.4,1.3-.2,0-.1.2c2.7.3,5.7,1.2,7.5,3.5s.2.3.3.3v.2c-2.5.6-4.9,1.3-7.4,1.9h-.2Z"/>
    <path class="st2" d="M35.2,44.3c-3.7,6-13.2,6.4-19.5,5.3-1.8-.3-3.7-.8-5.3-1.6v-6.7c1.4.5,2.8,1.2,4.2,1.6,3.5,1,11.4,2,13.2-2.3s.6-3.3,0-4.8l.4.2c2.4,2.7,4.7,5.4,7,8.1v.2Z"/>
    <path class="st0" d="M35.2,33.5c2.2,3.1,1.9,7.7,0,10.8-.2-.1-.3-.3-.5-.4-2.4-2.6-4.5-5.5-6.9-8.1s-.1-.2-.2-.3l7.6-2Z"/>
    <path class="st0" d="M44.9,34.8v-1.5c0-.7,0-1.7,0-2.4l-8.1,2.2c.3,5.1,1.3,11,5.4,14.4.2-.3.3-.7.4-1.1.9-3.2,1.7-6.5,2.4-9.7-.1-.6-.2-1.3-.2-1.8Z"/>
    <path class="st2" d="M53.4,41.3c-.6.9-1.3,1.6-2.4,1.9-4.1,1-6-6.6-6-6.6l-2.8,10.8c4.2,3.5,11.8,3.4,15.9-.1,1.7-1.5,2.9-3.6,3.7-6h-8.5Z"/>
    <path class="st4" d="M53.5,19.7h8.3c-1.7-4.8-5-8.6-11.3-8.8-12.7-.4-14.1,12.3-13.7,22.2l8.1-2.2c0-2.7,0-5.5.5-8.2.5-2.2,1.4-4.7,3.9-5.1,2-.3,3.2.7,4,2.1Z"/>
  </g>
  <g>
    <path class="st1" d="M51.5,38.7c-1.1,0-1.8-.9-1.8-2s.8-2.1,1.9-2.1,1.9.9,1.9,2-.8,2.1-1.9,2.1h0ZM51.6,38.1c.7,0,1.1-.7,1.1-1.5s-.4-1.5-1.1-1.5-1.1.7-1.1,1.5c0,.8.4,1.5,1.1,1.5h0Z"/>
    <path class="st1" d="M55.9,34.7c.4,0,.7,0,1.1,0,.5,0,.9,0,1.1.3.3.2.4.4.4.7,0,.4-.2.7-.7.9h0c.4.1.8.5.8,1,0,.3-.1.6-.4.8-.3.2-.8.4-1.5.4-.3,0-.6,0-.9,0v-3.9ZM56.6,36.3h.4c.5,0,.8-.2.8-.6s-.3-.5-.7-.5c-.1,0-.3,0-.4,0v1.1ZM56.6,38.1c.1,0,.3,0,.4,0,.5,0,.9-.2.9-.7s-.4-.7-.9-.7h-.4v1.3Z"/>
    <path class="st1" d="M62,34.8h.7c0-.1,0,2.4,0,2.4,0,1.1-.5,1.5-1.3,1.5-.2,0-.4,0-.6,0v-.6c.2,0,.4,0,.5,0,.4,0,.7-.2.7-.9v-2.4Z"/>
    <path class="st1" d="M67.6,36.9h-1.5v1.2h1.7v.6h-2.4v-4h2.3v.6h-1.6v1h1.5v.6Z"/>
    <path class="st1" d="M73,38.5c-.2,0-.6.2-1,.2-1.3,0-2-.8-2-2s.9-2.1,2.1-2.1.8,0,1,.2l-.2.6c-.2-.1-.5-.2-.8-.2-.8,0-1.4.5-1.4,1.5s.5,1.4,1.4,1.4c.3,0,.5,0,.8-.1v.6Z"/>
    <path class="st1" d="M76.4,35.3h-1.1v-.6h3v.6h-1.2v3.4h-.7v-3.4Z"/>
    <path class="st1" d="M80.6,37.9c.3.2.6.3,1,.3.5,0,.7-.2.7-.5s-.2-.5-.7-.7c-.7-.2-1.1-.6-1.1-1.2s.5-1.1,1.4-1.1c.3,0,.7,0,1,.2l-.2.6c-.2-.1-.5-.2-.8-.2-.5,0-.7.2-.7.5s.2.4.8.7c.7.3,1,.6,1,1.2s-.5,1.2-1.5,1.2-.9-.1-1.1-.3l.2-.6Z"/>
    <path class="st3" d="M55.9,28.8c0,.4,0,1.2,0,1.7-1.1.3-2.4.7-3.7.7s-2.9-1-2.9-2.6.5-2,1.5-2.4c.8-.4,1.5-.5,2.9-.5h.1v-.4c0-1-.3-1.3-1.2-1.3s-1.1.1-1.9.5c0,0-.2,0-.3.1l-.6-1.6c.1,0,.2,0,.6-.2.8-.3,1.6-.4,2.5-.4,1.5,0,2.5.6,2.8,1.6,0,.3.1.6.1,1.1v3.8ZM53.8,27.1h-.2c-1.5,0-2.2.4-2.2,1.4s.5,1.2,1.1,1.2c.5,0,.9-.1,1.3-.3v-2.3Z"/>
    <path class="st3" d="M107.6,28.8c0,.4,0,1.2,0,1.7-1.1.3-2.4.7-3.7.7s-2.9-1-2.9-2.6.5-2,1.5-2.4c.8-.4,1.5-.5,2.9-.5h.1v-.4c0-1-.3-1.3-1.2-1.3s-1.1.1-1.9.5c0,0-.2,0-.3.1l-.6-1.6c.1,0,.2,0,.6-.2.8-.3,1.6-.4,2.5-.4,1.5,0,2.5.6,2.8,1.6,0,.3.1.6.1,1.1v3.8ZM105.5,27.1h-.2c-1.5,0-2.2.4-2.2,1.4s.5,1.2,1.1,1.2c.5,0,.9-.1,1.3-.3v-2.3Z"/>
    <path class="st3" d="M70.9,31.2c-2.2,0-3.3-1.6-3.3-4.2s.3-3,1-3.8c.6-.7,1.3-1,2.2-1s1.1.1,1.7.5v-3.7l1.9-.4c.1,0,.3,0,.3,0v10.4c0,.4,0,1.2,0,1.7-.7.2-2.1.7-3.8.7ZM72.5,24.2c-.4-.2-.8-.3-1.2-.3-1.1,0-1.5.7-1.5,2.8s.4,3,1.4,3,.9-.1,1.3-.3v-5.2Z"/>
    <path class="st3" d="M90,27.2h-5c0,1.5.6,2.2,1.9,2.2s1.3-.2,2-.5c.1,0,.3-.2.3-.2l.7,1.6s0,0-.1,0c-.2,0-.4.2-.9.4-.7.3-1.4.4-2.2.4-2.5,0-3.9-1.6-3.9-4.5s1.5-4.6,3.8-4.6,3.4,1.6,3.4,4.7c0,0,0,.4,0,.4ZM85,25.6h2.7c0-1.4-.4-2-1.2-2s-1.3.5-1.5,2Z"/>
    <path class="st3" d="M77.1,23.6c1.1-.7,2.2-1.5,4.3-1.5.3,0,.6,0,.9,0l-.7,1.8c-.2-.1-.5-.2-.8-.2-.5,0-1,.2-1.5.5v6.5h-2.2v-5.6c0-.4,0-1.2,0-1.7Z"/>
    <path class="st3" d="M58.4,23.6c1.1-.7,2.2-1.5,4.3-1.5s2.6.9,2.6,2.7v6h-2.2v-5.5c0-1-.3-1.4-1-1.4s-.9.2-1.5.5v6.5h-2.2v-5.6c0-.4,0-1.2,0-1.7Z"/>
    <path class="st3" d="M92.1,23.6c1.1-.7,2.2-1.5,4.3-1.5s2.6.9,2.6,2.7v6h-2.2v-5.5c0-1-.3-1.4-1-1.4s-.9.2-1.5.5v6.5h-2.2v-5.6c0-.4,0-1.2,0-1.7Z"/>
  </g>
</svg>